<svg width="65" height="64" viewBox="0 0 65 64" fill="none" xmlns="http://www.w3.org/2000/svg">
<rect width="64" height="64" transform="translate(0.0664062)" fill="white"/>
<circle cx="32.0664" cy="32" r="24" fill="#AED0E5"/>
<path d="M52.8704 10.2435H48.0508V9.40812C48.0508 7.38388 46.403 5.73145 44.3741 5.73145H43.4699C41.4456 5.73145 39.7932 7.37929 39.7932 9.40812V10.6934H25.4904V9.40812C25.4904 7.38388 23.8426 5.73145 21.8137 5.73145H20.9095C18.8852 5.73145 17.2328 7.37929 17.2328 9.40812V10.2435H12.4132C10.0952 10.2435 8.20862 12.1347 8.20862 14.4618V35.5488C4.92209 38.0321 2.79688 41.975 2.79688 46.3999C2.79688 53.9001 8.89714 60.0004 16.3974 60.0004C23.8976 60.0004 29.9979 53.9001 29.9979 46.3999C29.9979 38.8996 23.8976 32.7993 16.3974 32.7993C14.1436 32.7993 12.023 33.3547 10.1502 34.3279V23.0086H42.0469C42.584 23.0086 43.0155 22.5772 43.0155 22.0401C43.0155 21.5031 42.584 21.0716 42.0469 21.0716H10.1502V14.4618C10.1502 13.2041 11.1692 12.1806 12.4178 12.1806H17.2374V13.9202C17.2374 15.9444 18.8852 17.5969 20.9141 17.5969H21.8183C23.8426 17.5969 25.495 15.949 25.495 13.9202V12.635H39.7978V13.9202C39.7978 15.9444 41.4456 17.5969 43.4745 17.5969H44.3787C46.403 17.5969 48.0554 15.949 48.0554 13.9202V12.1806H52.875C54.1235 12.1806 55.1425 13.2041 55.1425 14.4618V21.0716H49.7951C49.258 21.0716 48.8265 21.5031 48.8265 22.0401C48.8265 22.5772 49.258 23.0086 49.7951 23.0086H55.1425V48.5664C55.1425 49.8241 54.1235 50.8477 52.875 50.8477H32.651C32.1139 50.8477 31.6825 51.2791 31.6825 51.8162C31.6825 52.3532 32.1139 52.7847 32.651 52.7847H52.875C55.193 52.7847 57.0796 50.8936 57.0796 48.5664V14.4618C57.075 12.1347 55.1884 10.2435 52.8704 10.2435ZM28.07 46.3999C28.07 52.8306 22.8373 58.0633 16.4066 58.0633C9.97581 58.0633 4.74309 52.8306 4.74309 46.3999C4.74309 39.9691 9.97581 34.7364 16.4066 34.7364C22.8373 34.7364 28.07 39.9691 28.07 46.3999ZM23.558 13.9202C23.558 14.8795 22.7776 15.6599 21.8183 15.6599H20.9141C19.9547 15.6599 19.1744 14.8795 19.1744 13.9202V9.40812C19.1744 8.44879 19.9547 7.66847 20.9141 7.66847H21.8183C22.7776 7.66847 23.558 8.44879 23.558 9.40812V13.9202ZM46.1138 13.9202C46.1138 14.8795 45.3335 15.6599 44.3741 15.6599H43.4699C42.5105 15.6599 41.7302 14.8795 41.7302 13.9202V9.40812C41.7302 8.44879 42.5105 7.66847 43.4699 7.66847H44.3741C45.3335 7.66847 46.1138 8.44879 46.1138 9.40812V13.9202Z" fill="#1C1B1F"/>
<path d="M22.7902 46.3993C22.7902 45.8622 22.3587 45.4307 21.8217 45.4307H17.3784V40.0833C17.3784 39.5462 16.947 39.1147 16.4099 39.1147C15.8729 39.1147 15.4414 39.5462 15.4414 40.0833V47.3678H21.8217C22.3541 47.3678 22.7902 46.9317 22.7902 46.3993Z" fill="#1C1B1F"/>
<path d="M44.9975 21.286C44.5798 21.8597 44.7083 22.6584 45.2821 23.0761C45.8558 23.4938 46.6545 23.3653 47.0722 22.7915C47.4899 22.2178 47.3614 21.4191 46.7876 21.0014C46.2139 20.5837 45.4152 20.7122 44.9975 21.286Z" fill="#1C1B1F"/>
</svg>
