<svg width="71" height="71" viewBox="0 0 71 71" fill="none" xmlns="http://www.w3.org/2000/svg">
<circle cx="35.5" cy="35.5" r="35.5" fill="#F4F4F2"/>
<circle cx="35.5" cy="35.5" r="34.5" fill="#F1F1F1"/>
<mask id="mask0_994_23910" style="mask-type:alpha" maskUnits="userSpaceOnUse" x="1" y="1" width="69" height="69">
<circle cx="35.5" cy="35.5" r="34.5" fill="#F1F1F1"/>
</mask>
<g mask="url(#mask0_994_23910)">
<path d="M18.1394 20.6857C18.1394 11.5289 26.4284 6.79608 35.6135 7.46816C50.8473 7.69219 52.8635 15.9811 52.4154 17.5493C51.7973 16.107 50.3102 16.1808 48.9573 15.5046C54.7176 18.8572 50.6232 23.598 50.6232 23.598C50.6232 20.9097 49.5031 20.4617 49.2791 20.2376C50.1752 21.8058 49.9512 27.8545 49.9512 28.9747C49.9512 30.0948 51.0713 34.3513 51.9674 39.0558C53.3116 46.0006 46.1427 47.5688 44.7986 47.1207C44.7986 46.2246 44.5746 43.9844 42.7823 41.072C43.4544 42.1922 43.6784 45.7766 43.9025 47.1207C41.8862 47.5688 39.1979 46.0006 35.6135 46.6727C32.0291 47.3448 31.0106 45.8108 28.4251 46.6727C25.7368 47.5688 23.2725 46.4487 21.9283 44.4325C20.8829 42.8643 21.0518 38.3838 21.4998 36.5915C19.8994 37.9357 19.6754 43.611 19.8994 43.7604C12.5068 37.9357 17.4673 32.111 19.4835 19.3415C18.5875 19.3415 18.3634 20.3123 18.1394 20.6857Z" fill="#3B489C"/>
<path d="M29.9935 48.7177V38.4125L41.4188 38.1885V48.7177C43.435 49.9125 47.6467 52.3917 48.3636 52.7502C49.2597 53.1982 56.2045 56.5586 59.1169 58.5748C64.2695 62.3833 64.1201 67.7599 63.8214 69.7761H7.36686C6.69478 63.9515 9.83115 61.0391 10.9513 59.919C13.1019 57.9476 17.9708 55.3638 20.1363 54.3183L29.9935 48.7177Z" fill="#F5FAE6"/>
<path fill-rule="evenodd" clip-rule="evenodd" d="M41.6423 37.96V48.59C43.7028 49.8104 47.7683 52.2023 48.4633 52.5497C48.5476 52.5919 48.6872 52.6607 48.8734 52.7524C50.6396 53.6226 56.5937 56.5559 59.2438 58.3906L59.2467 58.3926L59.2495 58.3946C64.5 62.2755 64.3462 67.7584 64.0425 69.8089L64.0141 70.0001H7.16665L7.14377 69.8018C6.4799 64.0483 9.4727 61.0727 10.6838 59.8687C10.7218 59.8309 10.758 59.7949 10.7923 59.7605L10.7958 59.7571L10.7994 59.7538C11.8938 58.7506 13.6667 57.6017 15.4249 56.5778C17.1836 55.5536 18.9437 54.6453 20.0316 54.1198L29.7689 48.5873V38.1928L41.6423 37.96ZM30.217 38.6321V48.848L20.2399 54.5168L20.2332 54.52C19.155 55.0406 17.4016 55.9452 15.6504 56.965C13.8971 57.986 12.1623 59.1133 11.1057 60.0808C11.0722 60.1143 11.037 60.1493 11.0002 60.1859C9.82463 61.3545 7.01833 64.1443 7.56735 69.5521H63.6257C63.8968 67.4403 63.883 62.3785 58.9859 58.757C56.3675 56.9451 50.4633 54.0355 48.6823 53.1578C48.4929 53.0645 48.3501 52.9941 48.2629 52.9505C47.5366 52.5874 43.3144 50.1017 41.3041 48.9104L41.1942 48.8453V38.4169L30.217 38.6321Z" fill="#323C82"/>
<path d="M21.9277 48.0452C23.7199 45.7153 28.2005 44.3861 30.2167 44.0127V49.1653L31.1128 69.7757H29.5446C29.6193 64.1004 29.7238 52.5705 29.5446 51.8536C27.5284 47.5971 22.8238 48.7172 21.9277 48.0452Z" fill="black"/>
<path d="M49.4824 48.0452C47.6902 45.7153 43.2097 44.3861 41.1935 44.0127V49.1653L40.2974 69.7757H41.8655C41.7909 64.1004 41.6863 52.5705 41.8655 51.8536C43.8818 47.5971 48.5863 48.7172 49.4824 48.0452Z" fill="black"/>
<path d="M41.6431 56.1102V48.9414C42.0164 49.0908 42.808 49.4343 42.9872 49.6135C43.1664 49.7927 46.6463 51.7791 48.3638 52.7498L56.4288 57.0063V69.7758H16.3281V56.3343L19.9125 54.5421C21.5255 53.646 25.9612 51.0323 27.9775 49.8375L30.2177 48.9414V56.1102H41.6431Z" fill="black"/>
<path d="M43.6576 50.958C42.8362 52.3768 41.1934 57.9476 41.1934 68.8801" stroke="#3B489C" stroke-width="2" stroke-linecap="round"/>
<path d="M27.7525 50.958C28.5739 52.3768 30.2168 57.9476 30.2168 68.8801" stroke="#3B489C" stroke-width="2" stroke-linecap="round"/>
<path d="M50.3674 24.6459C48.9551 23.8982 47.5982 25.0336 47.2106 25.5597C47.2106 26.6896 46.7121 29.3535 46.4629 30.5442C46.629 30.655 47.1109 30.8932 47.709 30.9596C49.869 31.1996 51.0689 29.215 51.2812 27.3043C51.4474 25.809 51.1151 25.1444 50.3674 24.6459Z" fill="#F5FAE6" stroke="#323C82" stroke-width="0.741654"/>
<path fill-rule="evenodd" clip-rule="evenodd" d="M47.7343 27.0517C47.7829 26.9739 47.8854 26.9503 47.9632 26.9989C48.309 27.215 48.7617 27.608 48.9592 28.088C49.0599 28.3327 49.0963 28.6058 49.0108 28.8868C48.9255 29.1668 48.7252 29.4351 48.3891 29.6827C48.3152 29.7372 48.2112 29.7214 48.1568 29.6475C48.1023 29.5737 48.1181 29.4696 48.192 29.4152C48.4872 29.1977 48.6338 28.9841 48.6929 28.79C48.7516 28.597 48.7299 28.4038 48.6519 28.2145C48.4922 27.8264 48.1059 27.48 47.7871 27.2807C47.7093 27.2321 47.6856 27.1296 47.7343 27.0517Z" fill="#323C82"/>
<path fill-rule="evenodd" clip-rule="evenodd" d="M46.9829 27.9706C47.8199 26.5057 49.3073 26.1959 49.9592 26.2255C50.0509 26.2297 50.1218 26.3074 50.1176 26.399C50.1135 26.4907 50.0358 26.5616 49.9441 26.5575C49.3776 26.5317 48.0293 26.809 47.2714 28.1354C47.2258 28.2151 47.1244 28.2428 47.0447 28.1972C46.965 28.1517 46.9373 28.0502 46.9829 27.9706Z" fill="#323C82"/>
<path d="M20.8338 24.6459C22.246 23.8982 23.6029 25.0336 23.9906 25.5597C23.9906 26.6896 24.4891 29.3535 24.7383 30.5442C24.5721 30.655 24.0903 30.8932 23.4922 30.9596C21.3322 31.1996 20.1322 29.215 19.9199 27.3043C19.7538 25.809 20.0861 25.1444 20.8338 24.6459Z" fill="#F5FAE6" stroke="#323C82" stroke-width="0.741654"/>
<path fill-rule="evenodd" clip-rule="evenodd" d="M23.4689 27.0498C23.4202 26.972 23.3177 26.9483 23.2399 26.997C22.8941 27.2131 22.4414 27.606 22.2439 28.0861C22.1432 28.3308 22.1068 28.6038 22.1924 28.8849C22.2776 29.1649 22.4779 29.4331 22.814 29.6808C22.8879 29.7352 22.9919 29.7195 23.0464 29.6456C23.1008 29.5717 23.085 29.4677 23.0112 29.4133C22.7159 29.1957 22.5694 28.9821 22.5103 28.7881C22.4515 28.5951 22.4733 28.4019 22.5512 28.2125C22.7109 27.8244 23.0972 27.478 23.416 27.2787C23.4938 27.2301 23.5175 27.1276 23.4689 27.0498Z" fill="#323C82"/>
<path fill-rule="evenodd" clip-rule="evenodd" d="M24.2183 27.9696C23.3812 26.5047 21.8939 26.1949 21.242 26.2245C21.1503 26.2287 21.0794 26.3064 21.0835 26.3981C21.0877 26.4897 21.1654 26.5607 21.2571 26.5565C21.8236 26.5307 23.1718 26.808 23.9298 28.1344C23.9753 28.2141 24.0768 28.2418 24.1565 28.1963C24.2362 28.1507 24.2638 28.0492 24.2183 27.9696Z" fill="#323C82"/>
<ellipse cx="35.6817" cy="26.6754" rx="8.96104" ry="15.9058" fill="#DCC1AE"/>
<path d="M47.5428 24.8956C47.5428 33.6129 42.1868 40.6798 35.58 40.6798C28.9731 40.6798 23.6172 33.6129 23.6172 24.8956C23.6172 16.1782 28.9731 9.11133 35.58 9.11133C42.1868 9.11133 47.5428 16.1782 47.5428 24.8956Z" fill="#F5FAE6"/>
<path fill-rule="evenodd" clip-rule="evenodd" d="M43.7741 35.856C45.8913 33.0625 47.2105 29.1885 47.2105 24.8956C47.2105 20.6026 45.8913 16.7286 43.7741 13.9351C41.6571 11.1419 38.7569 9.44363 35.58 9.44363C32.4031 9.44363 29.5029 11.1419 27.3858 13.9351C25.2687 16.7286 23.9495 20.6026 23.9495 24.8956C23.9495 29.1885 25.2687 33.0625 27.3858 35.856C29.5029 38.6493 32.4031 40.3475 35.58 40.3475C38.7569 40.3475 41.6571 38.6493 43.7741 35.856ZM35.58 40.6798C42.1868 40.6798 47.5428 33.6129 47.5428 24.8956C47.5428 16.1782 42.1868 9.11133 35.58 9.11133C28.9731 9.11133 23.6172 16.1782 23.6172 24.8956C23.6172 33.6129 28.9731 40.6798 35.58 40.6798Z" fill="#323C82"/>
<path fill-rule="evenodd" clip-rule="evenodd" d="M34.9372 25.727C35.0282 25.7387 35.0924 25.822 35.0807 25.913L34.7471 28.498L34.7448 28.5074C34.6808 28.7634 34.7132 29.0356 34.9025 29.171C34.9997 29.2405 35.16 29.2931 35.4227 29.2764C35.6862 29.2596 36.0417 29.1735 36.5139 28.9781C36.5987 28.9431 36.6958 28.9834 36.7309 29.0681C36.766 29.1529 36.7257 29.2501 36.6409 29.2852C36.1494 29.4886 35.7566 29.5881 35.4439 29.608C35.1304 29.6279 34.8868 29.5683 34.7091 29.4413C34.3527 29.1862 34.348 28.7346 34.42 28.4365L34.7511 25.8705C34.7629 25.7795 34.8461 25.7152 34.9372 25.727ZM39.8881 31.312C39.9227 31.397 39.8819 31.4939 39.7969 31.5286C36.1563 33.0118 32.8269 32.1502 31.6003 31.5226C31.5186 31.4808 31.4862 31.3807 31.528 31.299C31.5698 31.2173 31.6699 31.185 31.7516 31.2268C32.9065 31.8177 36.1345 32.6619 39.6715 31.2208C39.7565 31.1862 39.8535 31.227 39.8881 31.312ZM37.0652 33.2271C37.0975 33.313 37.0539 33.4088 36.968 33.441C36.5209 33.6087 35.4122 33.95 34.5836 33.95C34.4918 33.95 34.4174 33.8756 34.4174 33.7839C34.4174 33.6921 34.4918 33.6177 34.5836 33.6177C35.35 33.6177 36.4123 33.2945 36.8513 33.1298C36.9372 33.0976 37.033 33.1412 37.0652 33.2271Z" fill="#323C82"/>
<path d="M40.9806 20.0758C38.6545 19.4777 37.5191 20.3251 37.2422 20.8235C37.7406 20.9343 39.6846 21.4217 43.4728 22.485C42.9744 20.9897 41.3959 20.1589 40.9806 20.0758Z" fill="#5562B5"/>
<path fill-rule="evenodd" clip-rule="evenodd" d="M39.0873 25.4254C39.115 25.3889 39.1671 25.3818 39.2037 25.4095L41.2805 26.9879C41.3171 27.0157 41.3242 27.0678 41.2964 27.1043C41.2686 27.1409 41.2165 27.148 41.18 27.1202L39.1031 25.5418C39.0666 25.514 39.0595 25.4619 39.0873 25.4254Z" fill="#BC5103"/>
<circle cx="40.4822" cy="24.4783" r="0.913824" fill="#212857"/>
<path d="M29.7655 20.0768C32.0916 19.4787 33.227 20.326 33.5039 20.8245C33.0055 20.9353 31.0615 21.4226 27.2733 22.486C27.7717 20.9906 29.3502 20.1599 29.7655 20.0768Z" fill="#5562B5"/>
<path fill-rule="evenodd" clip-rule="evenodd" d="M31.6588 25.4264C31.6311 25.3898 31.579 25.3827 31.5424 25.4105L29.4656 26.9889C29.429 27.0167 29.4219 27.0688 29.4497 27.1053C29.4775 27.1419 29.5296 27.149 29.5661 27.1212L31.643 25.5428C31.6795 25.515 31.6866 25.4629 31.6588 25.4264Z" fill="#BC5103"/>
<circle r="0.913824" transform="matrix(-1 0 0 1 30.2639 24.4793)" fill="#212857"/>
<rect x="47.5977" y="20.9385" width="4.48052" height="10.3052" rx="2.24026" fill="#99CC00"/>
<rect x="18.9219" y="20.9385" width="4.48052" height="10.3052" rx="2.24026" fill="#99CC00"/>
<path fill-rule="evenodd" clip-rule="evenodd" d="M35.5008 7.72073C28.3213 7.72073 22.2832 14.3131 22.2832 22.7305C22.2832 23.3491 21.7817 23.8506 21.1631 23.8506C20.5445 23.8506 20.043 23.3491 20.043 22.7305C20.043 13.3312 26.8433 5.48047 35.5008 5.48047C44.1582 5.48047 50.9586 13.3312 50.9586 22.7305C50.9586 23.3491 50.4571 23.8506 49.8384 23.8506C49.2198 23.8506 48.7183 23.3491 48.7183 22.7305C48.7183 14.3131 42.6802 7.72073 35.5008 7.72073Z" fill="#99CC00"/>
<path d="M29.768 15.5618L26.1835 15.5617C25.7354 13.9936 27.5277 12.6494 28.8718 11.3053C30.664 9.28903 34.6965 8.61695 36.7127 8.84097C42.627 9.55786 44.8523 13.4708 45.2257 15.5618H41.6412V15.5615C41.6412 14.2174 41.6412 13.0974 40.5212 11.7533C41.4173 13.0079 41.1932 14.7403 40.9692 15.5618H37.3847C37.3847 14.4416 36.7127 12.8734 36.4887 12.8734C36.8472 13.4111 36.7874 14.8897 36.7127 15.5618H33.5764H31.3361C31.5602 14.2176 31.7094 13.3215 31.5601 12.6494C31.0224 13.187 30.7387 14.7403 30.664 15.5618C29.992 14.6656 30.216 12.8734 31.1121 11.9773C29.8576 13.0527 29.6933 14.8897 29.768 15.5618Z" fill="#3B489C"/>
</g>
</svg>
