<svg width="69" height="69" viewBox="0 0 69 69" fill="none" xmlns="http://www.w3.org/2000/svg">
<circle cx="34.5" cy="34.5" r="34.5" fill="#E0F0B3"/>
<circle cx="34.5" cy="34.5" r="34.5" fill="#F1F1F1"/>
<mask id="mask0_994_23701" style="mask-type:alpha" maskUnits="userSpaceOnUse" x="0" y="0" width="69" height="69">
<circle cx="34.5" cy="34.5" r="34.5" fill="#E0F0B3"/>
</mask>
<g mask="url(#mask0_994_23701)">
<path d="M21.4373 16.1735C22.8995 7.26786 30.9079 5.48452 34.7293 5.70605C47.5228 6.37065 47.3567 16.5889 47.3567 17.4196C47.3567 18.2504 47.1075 24.6471 47.3567 29.5485C46.5592 42.5747 50.0705 52.6987 51.9258 56.1325C42.6491 57.2402 22.6336 58.7909 16.7852 56.1325C20.8558 50.4834 21.9358 34.8653 21.9358 32.3731C21.9358 29.8808 20.9389 20.8257 21.4373 16.1735Z" fill="#BC5103"/>
<path d="M49.1838 23.7338C47.7715 22.9861 46.4147 24.1215 46.027 24.6476C46.027 25.7775 45.5285 28.4414 45.2793 29.6321C45.4454 29.7429 45.9273 29.981 46.5254 30.0475C48.6854 30.2875 49.8853 28.3029 50.0976 26.3922C50.2638 24.8969 49.9315 24.2323 49.1838 23.7338Z" fill="#F5FAE6"/>
<path fill-rule="evenodd" clip-rule="evenodd" d="M46.1928 24.7045C46.1851 25.2893 46.0613 26.2195 45.9107 27.1439C45.7642 28.043 45.5903 28.9485 45.4661 29.5504C45.6687 29.661 46.0669 29.8295 46.5439 29.8825C47.5614 29.9956 48.3493 29.588 48.9152 28.9192C49.4855 28.2451 49.8292 27.3049 49.9326 26.374C50.0143 25.6385 49.9707 25.1283 49.8279 24.7477C49.6883 24.3753 49.4477 24.1109 49.0988 23.8769C48.4528 23.5381 47.8193 23.6241 47.29 23.8645C46.7836 24.0944 46.3859 24.4605 46.1928 24.7045ZM47.1526 23.5619C47.7496 23.2909 48.4979 23.1828 49.2617 23.5871L49.2691 23.5911L49.2761 23.5957C49.671 23.859 49.9681 24.1751 50.1391 24.631C50.3079 25.0811 50.3473 25.6509 50.2629 26.4107C50.154 27.3906 49.7915 28.398 49.1688 29.1339C48.5417 29.875 47.6496 30.3397 46.5072 30.2128C45.8799 30.1431 45.3731 29.8944 45.1872 29.7705L45.0938 29.7082L45.1168 29.5982C45.241 29.0049 45.4274 28.0437 45.5827 27.0905C45.7387 26.1332 45.8609 25.1974 45.8609 24.6478V24.5932L45.8933 24.5492C46.1025 24.2653 46.5604 23.8308 47.1526 23.5619Z" fill="#BC5103"/>
<path fill-rule="evenodd" clip-rule="evenodd" d="M46.5507 26.1396C46.5993 26.0618 46.7018 26.0382 46.7796 26.0868C47.1254 26.3029 47.5781 26.6959 47.7757 27.1759C47.8763 27.4206 47.9127 27.6937 47.8272 27.9747C47.7419 28.2547 47.5416 28.523 47.2055 28.7706C47.1316 28.8251 47.0276 28.8093 46.9732 28.7354C46.9187 28.6616 46.9345 28.5575 47.0084 28.5031C47.3036 28.2856 47.4502 28.072 47.5093 27.8779C47.568 27.6849 47.5463 27.4917 47.4684 27.3024C47.3087 26.9143 46.9223 26.5678 46.6035 26.3686C46.5257 26.32 46.502 26.2175 46.5507 26.1396Z" fill="#BC5103"/>
<path fill-rule="evenodd" clip-rule="evenodd" d="M45.7993 27.0584C46.6363 25.5935 48.1237 25.2838 48.7756 25.3134C48.8673 25.3176 48.9382 25.3953 48.934 25.4869C48.9299 25.5786 48.8522 25.6495 48.7605 25.6454C48.194 25.6196 46.8457 25.8969 46.0878 27.2233C46.0423 27.303 45.9408 27.3307 45.8611 27.2851C45.7814 27.2396 45.7537 27.1381 45.7993 27.0584Z" fill="#BC5103"/>
<path d="M19.6521 23.7338C21.0644 22.9861 22.4213 24.1215 22.809 24.6476C22.809 25.7775 23.3074 28.4414 23.5566 29.6321C23.3905 29.7429 22.9087 29.981 22.3105 30.0475C20.1506 30.2875 18.9506 28.3029 18.7383 26.3922C18.5721 24.8969 18.9044 24.2323 19.6521 23.7338Z" fill="#F5FAE6"/>
<path fill-rule="evenodd" clip-rule="evenodd" d="M22.6431 24.7045C22.6509 25.2893 22.7747 26.2195 22.9253 27.1439C23.0718 28.043 23.2456 28.9485 23.3698 29.5504C23.1673 29.661 22.7691 29.8295 22.2921 29.8825C21.2745 29.9956 20.4867 29.588 19.9208 28.9192C19.3504 28.2451 19.0068 27.3049 18.9033 26.374C18.8216 25.6385 18.8653 25.1283 19.008 24.7477C19.1476 24.3753 19.3882 24.1109 19.7372 23.8769C20.3832 23.5381 21.0166 23.6241 21.546 23.8645C22.0523 24.0944 22.4501 24.4605 22.6431 24.7045ZM21.6834 23.5619C21.0863 23.2909 20.338 23.1828 19.5743 23.5871L19.5669 23.5911L19.5599 23.5957C19.1649 23.859 18.8678 24.1751 18.6969 24.631C18.528 25.0811 18.4886 25.6509 18.5731 26.4107C18.6819 27.3906 19.0444 28.398 19.6671 29.1339C20.2943 29.875 21.1864 30.3397 22.3288 30.2128C22.956 30.1431 23.4628 29.8944 23.6487 29.7705L23.7422 29.7082L23.7192 29.5982C23.595 29.0049 23.4085 28.0437 23.2532 27.0905C23.0973 26.1332 22.975 25.1974 22.975 24.6478V24.5932L22.9426 24.5492C22.7334 24.2653 22.2756 23.8308 21.6834 23.5619Z" fill="#BC5103"/>
<path fill-rule="evenodd" clip-rule="evenodd" d="M22.2872 26.1377C22.2386 26.0599 22.1361 26.0362 22.0583 26.0848C21.7125 26.301 21.2598 26.6939 21.0622 27.174C20.9615 27.4187 20.9252 27.6917 21.0107 27.9728C21.096 28.2528 21.2963 28.521 21.6324 28.7687C21.7063 28.8231 21.8103 28.8073 21.8647 28.7335C21.9191 28.6596 21.9034 28.5556 21.8295 28.5012C21.5343 28.2836 21.3877 28.07 21.3286 27.876C21.2699 27.683 21.2916 27.4898 21.3695 27.3004C21.5292 26.9123 21.9156 26.5659 22.2344 26.3666C22.3122 26.318 22.3359 26.2155 22.2872 26.1377Z" fill="#BC5103"/>
<path fill-rule="evenodd" clip-rule="evenodd" d="M23.0367 27.0575C22.1996 25.5926 20.7123 25.2828 20.0603 25.3124C19.9687 25.3166 19.8977 25.3943 19.9019 25.4859C19.9061 25.5776 19.9837 25.6485 20.0754 25.6444C20.6419 25.6186 21.9902 25.8959 22.7482 27.2223C22.7937 27.302 22.8952 27.3297 22.9748 27.2842C23.0545 27.2386 23.0822 27.1371 23.0367 27.0575Z" fill="#BC5103"/>
<path d="M28.9149 47.7419V37.6068L40.2962 37.1914V47.7419L48.0221 52.311L34.7302 61.0339L20.6074 52.311L28.9149 47.7419Z" fill="#F5FAE6"/>
<ellipse cx="34.5001" cy="25.7633" rx="8.96104" ry="15.9058" fill="#DCC1AE"/>
<path d="M46.3611 23.9834C46.3611 32.7008 41.0052 39.7677 34.3983 39.7677C27.7915 39.7677 22.4355 32.7008 22.4355 23.9834C22.4355 15.2661 27.7915 8.19922 34.3983 8.19922C41.0052 8.19922 46.3611 15.2661 46.3611 23.9834Z" fill="#F5FAE6"/>
<path fill-rule="evenodd" clip-rule="evenodd" d="M42.5925 34.9439C44.7096 32.1504 46.0288 28.2764 46.0288 23.9834C46.0288 19.6905 44.7096 15.8165 42.5925 13.023C40.4755 10.2297 37.5752 8.53152 34.3983 8.53152C31.2214 8.53152 28.3212 10.2297 26.2042 13.023C24.087 15.8165 22.7678 19.6905 22.7678 23.9834C22.7678 28.2764 24.087 32.1504 26.2042 34.9439C28.3212 37.7371 31.2214 39.4354 34.3983 39.4354C37.5752 39.4354 40.4755 37.7371 42.5925 34.9439ZM34.3983 39.7677C41.0052 39.7677 46.3611 32.7008 46.3611 23.9834C46.3611 15.2661 41.0052 8.19922 34.3983 8.19922C27.7915 8.19922 22.4355 15.2661 22.4355 23.9834C22.4355 32.7008 27.7915 39.7677 34.3983 39.7677Z" fill="#BC5103"/>
<path d="M46.7756 51.5635C36.0091 58.9405 25.7853 54.6372 22.0193 51.5635C19.1947 53.0311 13.2632 56.1658 12.1334 56.9633C6.35136 61.2832 5.84737 66.7939 6.31813 69.0092H62.726C64.1382 60.9509 56.4954 56.3818 53.92 54.9695C49.9324 52.8428 47.4956 51.8127 46.7756 51.5635Z" fill="#187AB4"/>
<path fill-rule="evenodd" clip-rule="evenodd" d="M33.7536 24.8149C33.8446 24.8266 33.9088 24.9099 33.8971 25.0009L33.5635 27.5859L33.5612 27.5953C33.4972 27.8512 33.5296 28.1235 33.7189 28.2589C33.8161 28.3284 33.9764 28.381 34.2391 28.3642C34.5026 28.3475 34.8581 28.2614 35.3303 28.066C35.4151 28.031 35.5122 28.0712 35.5473 28.156C35.5824 28.2408 35.5421 28.338 35.4573 28.3731C34.9658 28.5765 34.573 28.676 34.2603 28.6959C33.9468 28.7158 33.7032 28.6562 33.5256 28.5292C33.1691 28.2741 33.1644 27.8224 33.2364 27.5244L33.5675 24.9584C33.5793 24.8674 33.6626 24.8031 33.7536 24.8149ZM38.7045 30.3999C38.7391 30.4849 38.6983 30.5818 38.6133 30.6165C34.9727 32.0997 31.6433 31.2381 30.4167 30.6105C30.335 30.5687 30.3026 30.4686 30.3444 30.3869C30.3862 30.3052 30.4863 30.2729 30.568 30.3147C31.7229 30.9055 34.9509 31.7497 38.4879 30.3087C38.5729 30.2741 38.6699 30.3149 38.7045 30.3999ZM35.8816 32.315C35.9139 32.4009 35.8703 32.4967 35.7844 32.5289C35.3373 32.6966 34.2286 33.0379 33.4 33.0379C33.3082 33.0379 33.2338 32.9635 33.2338 32.8718C33.2338 32.78 33.3082 32.7056 33.4 32.7056C34.1664 32.7056 35.2288 32.3824 35.6677 32.2177C35.7537 32.1855 35.8494 32.229 35.8816 32.315Z" fill="#BC5103"/>
<path d="M23.1833 20.4112C31.8231 19.813 36.2538 14.2359 37.3891 11.5221C39.2999 17.0051 43.0382 18.6666 44.7828 19.9958C44.7828 21.7902 45.9458 23.4019 46.5273 23.9834C46.4997 22.7926 46.4609 20.2284 46.5273 19.4973C43.869 9.6945 37.9707 8.6976 36.2261 8.28223C19.7773 8.44838 22.6849 22.1557 23.1833 20.4112Z" fill="#BC5103"/>
<path d="M39.7989 19.1637C37.4728 18.5656 36.3375 19.413 36.0605 19.9114C36.559 20.0222 38.5029 20.5095 42.2912 21.5729C41.7927 20.0776 40.2143 19.2468 39.7989 19.1637Z" fill="#BC5103"/>
<path d="M37.9707 24.5635L40.0476 26.1419" stroke="#BC5103" stroke-width="0.370827" stroke-linecap="round"/>
<circle cx="39.3025" cy="23.5662" r="0.913824" fill="#1C1B1F"/>
<path d="M28.5819 19.1637C30.908 18.5656 32.0434 19.413 32.3203 19.9114C31.8219 20.0222 29.8779 20.5095 26.0897 21.5729C26.5881 20.0776 28.1666 19.2468 28.5819 19.1637Z" fill="#BC5103" stroke="#BC5103" stroke-width="0.370827"/>
<path d="M30.4102 24.5635L28.3333 26.1419" stroke="#BC5103" stroke-width="0.370827" stroke-linecap="round"/>
<circle r="0.913824" transform="matrix(-1 0 0 1 29.0803 23.5662)" fill="#1C1B1F"/>
</g>
</svg>
