<svg width="71" height="71" viewBox="0 0 71 71" fill="none" xmlns="http://www.w3.org/2000/svg">
<circle cx="35.5" cy="35.5" r="35.5" fill="#F4F4F2"/>
<circle cx="35.5" cy="35.5" r="34.5" fill="#F1F1F1"/>
<mask id="mask0_994_23806" style="mask-type:alpha" maskUnits="userSpaceOnUse" x="1" y="1" width="69" height="69">
<circle cx="35.5" cy="35.5" r="34.5" fill="#F1F1F1"/>
</mask>
<g mask="url(#mask0_994_23806)">
<rect x="29.3828" y="48.1309" width="12.6648" height="3.67687" fill="#4D6600"/>
<path d="M48.9821 28.5079C47.6943 27.8261 46.4571 28.8614 46.1036 29.3411C46.1036 30.3713 45.6491 32.8003 45.4219 33.8861C45.5734 33.9871 46.0127 34.2042 46.5581 34.2648C48.5276 34.4836 49.6217 32.6741 49.8153 30.9319C49.9668 29.5684 49.6638 28.9624 48.9821 28.5079Z" fill="#F5FAE6"/>
<path fill-rule="evenodd" clip-rule="evenodd" d="M46.2541 29.393C46.247 29.9263 46.1342 30.7744 45.9968 31.6173C45.8633 32.4371 45.7047 33.2627 45.5915 33.8115C45.7762 33.9124 46.1392 34.0661 46.5742 34.1144C47.502 34.2175 48.2204 33.8458 48.7364 33.236C49.2564 32.6214 49.5698 31.7641 49.6641 30.9153C49.7386 30.2446 49.6988 29.7794 49.5687 29.4323C49.4413 29.0928 49.222 28.8517 48.9038 28.6384C48.3148 28.3294 47.7372 28.4079 47.2545 28.627C46.7928 28.8366 46.4301 29.1705 46.2541 29.393ZM47.1292 28.3511C47.6736 28.104 48.3559 28.0055 49.0523 28.3741L49.0591 28.3777L49.0655 28.382C49.4256 28.622 49.6965 28.9103 49.8524 29.326C50.0063 29.7364 50.0422 30.2559 49.9652 30.9487C49.866 31.8422 49.5354 32.7607 48.9677 33.4317C48.3958 34.1076 47.5824 34.5313 46.5407 34.4155C45.9688 34.352 45.5067 34.1253 45.3372 34.0123L45.252 33.9554L45.2729 33.8552C45.3862 33.3141 45.5562 32.4377 45.6978 31.5685C45.84 30.6957 45.9515 29.8424 45.9515 29.3413V29.2915L45.981 29.2514C46.1718 28.9925 46.5892 28.5963 47.1292 28.3511Z" fill="#834161"/>
<path fill-rule="evenodd" clip-rule="evenodd" d="M46.5797 30.7011C46.624 30.6302 46.7175 30.6086 46.7885 30.6529C47.1037 30.85 47.5165 31.2083 47.6966 31.646C47.7885 31.8691 47.8216 32.1181 47.7436 32.3744C47.6659 32.6297 47.4832 32.8743 47.1768 33.1001C47.1094 33.1497 47.0146 33.1353 46.9649 33.068C46.9153 33.0006 46.9297 32.9058 46.997 32.8562C47.2663 32.6578 47.3999 32.463 47.4538 32.2861C47.5073 32.1101 47.4875 31.9339 47.4164 31.7613C47.2708 31.4074 46.9186 31.0916 46.6279 30.9099C46.5569 30.8655 46.5353 30.7721 46.5797 30.7011Z" fill="#834161"/>
<path fill-rule="evenodd" clip-rule="evenodd" d="M45.895 31.5392C46.6583 30.2034 48.0144 29.921 48.6089 29.948C48.6925 29.9518 48.7571 30.0226 48.7533 30.1062C48.7495 30.1898 48.6787 30.2545 48.5951 30.2507C48.0786 30.2272 46.8492 30.48 46.1581 31.6895C46.1165 31.7621 46.024 31.7874 45.9514 31.7459C45.8787 31.7043 45.8535 31.6118 45.895 31.5392Z" fill="#834161"/>
<path d="M22.0531 28.5079C23.3408 27.8261 24.578 28.8614 24.9315 29.3411C24.9315 30.3713 25.386 32.8003 25.6133 33.8861C25.4618 33.9871 25.0224 34.2042 24.477 34.2648C22.5076 34.4836 21.4134 32.6741 21.2198 30.9319C21.0683 29.5684 21.3713 28.9624 22.0531 28.5079Z" fill="#F5FAE6"/>
<path fill-rule="evenodd" clip-rule="evenodd" d="M24.781 29.393C24.7881 29.9263 24.901 30.7744 25.0383 31.6173C25.1719 32.4371 25.3304 33.2627 25.4437 33.8115C25.259 33.9124 24.8959 34.0661 24.461 34.1144C23.5332 34.2175 22.8148 33.8458 22.2988 33.236C21.7787 32.6214 21.4654 31.7641 21.3711 30.9153C21.2965 30.2446 21.3364 29.7794 21.4665 29.4323C21.5938 29.0928 21.8132 28.8517 22.1314 28.6384C22.7204 28.3294 23.298 28.4079 23.7807 28.627C24.2424 28.8366 24.605 29.1705 24.781 29.393ZM23.9059 28.3511C23.3616 28.104 22.6792 28.0055 21.9828 28.3741L21.9761 28.3777L21.9697 28.382C21.6096 28.622 21.3387 28.9103 21.1828 29.326C21.0289 29.7364 20.9929 30.2559 21.0699 30.9487C21.1692 31.8422 21.4997 32.7607 22.0675 33.4317C22.6393 34.1076 23.4528 34.5313 24.4944 34.4155C25.0664 34.352 25.5285 34.1253 25.698 34.0123L25.7832 33.9554L25.7622 33.8552C25.649 33.3141 25.479 32.4377 25.3374 31.5685C25.1952 30.6957 25.0837 29.8424 25.0837 29.3413V29.2915L25.0542 29.2514C24.8634 28.9925 24.4459 28.5963 23.9059 28.3511Z" fill="#834161"/>
<path fill-rule="evenodd" clip-rule="evenodd" d="M24.4555 30.7001C24.4111 30.6292 24.3177 30.6076 24.2467 30.652C23.9314 30.849 23.5186 31.2073 23.3385 31.645C23.2467 31.8682 23.2135 32.1171 23.2915 32.3734C23.3693 32.6287 23.5519 32.8733 23.8584 33.0991C23.9257 33.1487 24.0206 33.1344 24.0702 33.067C24.1198 32.9997 24.1055 32.9048 24.0381 32.8552C23.7689 32.6568 23.6353 32.4621 23.5814 32.2851C23.5278 32.1092 23.5477 31.933 23.6187 31.7603C23.7643 31.4064 24.1166 31.0906 24.4073 30.9089C24.4782 30.8645 24.4998 30.7711 24.4555 30.7001Z" fill="#834161"/>
<path fill-rule="evenodd" clip-rule="evenodd" d="M25.1402 31.5382C24.3769 30.2025 23.0207 29.92 22.4263 29.947C22.3427 29.9508 22.278 30.0217 22.2818 30.1052C22.2856 30.1888 22.3565 30.2535 22.44 30.2497C22.9566 30.2262 24.186 30.4791 24.8771 31.6885C24.9186 31.7612 25.0112 31.7864 25.0838 31.7449C25.1564 31.7034 25.1817 31.6108 25.1402 31.5382Z" fill="#834161"/>
<path d="M30.4987 50.3994V41.158L40.8763 40.7793V50.3994L47.921 54.5656L35.8012 62.5193L22.9238 54.5656L30.4987 50.3994Z" fill="#F5FAE6"/>
<path fill-rule="evenodd" clip-rule="evenodd" d="M41.0398 40.6104V50.3068L48.2298 54.5589L35.8038 62.7135L22.5996 54.558L30.3353 50.3033V41.001L41.0398 40.6104ZM30.6621 41.3161V50.4966L23.2481 54.5743L35.7985 62.3261L47.6122 54.5734L40.7129 50.4932V40.9493L30.6621 41.3161Z" fill="#834161"/>
<ellipse cx="35.5927" cy="30.3596" rx="8.17082" ry="14.5032" fill="#DCC1AE"/>
<path d="M46.4075 28.7361C46.4075 36.6847 41.5239 43.1284 35.4997 43.1284C29.4754 43.1284 24.5918 36.6847 24.5918 28.7361C24.5918 20.7874 29.4754 14.3438 35.4997 14.3438C41.5239 14.3438 46.4075 20.7874 46.4075 28.7361Z" fill="#F5FAE6"/>
<path fill-rule="evenodd" clip-rule="evenodd" d="M42.9712 38.7299C44.9017 36.1828 46.1045 32.6504 46.1045 28.7361C46.1045 24.8217 44.9017 21.2893 42.9712 18.7422C41.0409 16.1952 38.3964 14.6467 35.4997 14.6467C32.6029 14.6467 29.9584 16.1952 28.0281 18.7422C26.0976 21.2893 24.8948 24.8217 24.8948 28.7361C24.8948 32.6504 26.0976 36.1828 28.0281 38.7299C29.9584 41.2769 32.6029 42.8254 35.4997 42.8254C38.3964 42.8254 41.0409 41.2769 42.9712 38.7299ZM35.4997 43.1284C41.5239 43.1284 46.4075 36.6847 46.4075 28.7361C46.4075 20.7874 41.5239 14.3438 35.4997 14.3438C29.4754 14.3438 24.5918 20.7874 24.5918 28.7361C24.5918 36.6847 29.4754 43.1284 35.4997 43.1284Z" fill="#834161"/>
<path d="M46.7859 53.8848C36.9688 60.6113 27.6466 56.6875 24.2127 53.8848C21.6372 55.223 16.2287 58.0813 15.1985 58.8084C9.92641 62.7474 9.46686 67.7721 9.89611 69.7921H61.3297C62.6174 62.4444 55.6485 58.2782 53.3003 56.9905C49.6643 55.0513 47.4424 54.112 46.7859 53.8848Z" fill="#6B8F00"/>
<path fill-rule="evenodd" clip-rule="evenodd" d="M34.9123 29.4944C34.9952 29.5051 35.0538 29.5811 35.0431 29.6641L34.739 32.0211L34.7368 32.0296C34.6785 32.2631 34.7081 32.5113 34.8806 32.6347C34.9693 32.6982 35.1155 32.7461 35.355 32.7308C35.5952 32.7155 35.9194 32.6371 36.3499 32.4589C36.4272 32.4269 36.5158 32.4637 36.5478 32.541C36.5798 32.6183 36.5431 32.7069 36.4658 32.7389C36.0176 32.9243 35.6594 33.015 35.3743 33.0332C35.0885 33.0514 34.8663 32.997 34.7044 32.8812C34.3793 32.6486 34.3751 32.2368 34.4407 31.965L34.7426 29.6253C34.7533 29.5423 34.8293 29.4837 34.9123 29.4944ZM39.4266 34.587C39.4582 34.6644 39.4209 34.7528 39.3434 34.7844C36.0239 36.1368 32.9881 35.3512 31.8696 34.779C31.7951 34.7409 31.7657 34.6496 31.8038 34.5751C31.8419 34.5006 31.9332 34.4711 32.0076 34.5092C33.0607 35.048 36.004 35.8178 39.2291 34.5038C39.3066 34.4722 39.395 34.5095 39.4266 34.587ZM36.8527 36.3331C36.8821 36.4115 36.8424 36.4988 36.764 36.5282C36.3563 36.6811 35.3454 36.9923 34.5899 36.9923C34.5062 36.9923 34.4384 36.9245 34.4384 36.8408C34.4384 36.7572 34.5062 36.6893 34.5899 36.6893C35.2887 36.6893 36.2574 36.3946 36.6576 36.2445C36.736 36.2151 36.8233 36.2548 36.8527 36.3331Z" fill="#834161"/>
<path d="M40.4243 24.3419C38.3034 23.7965 37.2681 24.5691 37.0156 25.0236C37.4701 25.1246 39.2426 25.569 42.6968 26.5386C42.2423 25.1751 40.8031 24.4176 40.4243 24.3419Z" fill="black"/>
<path d="M38.7578 29.2656L40.6515 30.7049" stroke="#4A4A4A" stroke-width="0.338126" stroke-linecap="round"/>
<circle cx="39.97" cy="28.3567" r="0.833239" fill="#1C1B1F"/>
<path d="M30.1968 24.3419C32.3177 23.7965 33.353 24.5691 33.6055 25.0236C33.151 25.1246 31.3784 25.569 27.9243 26.5386C28.3788 25.1751 29.818 24.4176 30.1968 24.3419Z" fill="black"/>
<path d="M31.8633 29.2656L29.9696 30.7049" stroke="#4A4A4A" stroke-width="0.338126" stroke-linecap="round"/>
<circle r="0.833239" transform="matrix(-1 0 0 1 30.6511 28.3567)" fill="#1C1B1F"/>
<path d="M36.124 20.7584C40.7034 22.8031 42.6104 22.047 43.682 20.9627C44.4991 21.5755 45.2014 21.984 45.3162 24.5919C45.4172 26.8865 46.1333 29.1335 46.1333 29.1335H46.3375C46.5728 27.8943 48.0624 26.3733 49.8659 24.9792C51.8263 23.3527 50.8853 21.339 50.1795 20.487C49.4738 19.79 49.0033 18.0086 49.3954 15.7625C49.7875 13.439 49.6792 12.3834 49.0033 11.3478C46.7461 7.88942 42.4949 9.33404 41.3187 9.5664C40.1425 9.79875 37.7116 10.4958 36.457 10.4958C35.2023 10.4958 33.5556 8.71444 33.0851 8.40463C31.4203 6.89538 29.5661 6.49474 28.3618 6.86807C27.0359 7.27906 26.4368 8.57347 26.3415 9.10169C26.1806 9.99352 26.3415 11.5027 26.3415 12.9743C26.3415 14.4458 25.0934 13.8132 23.8322 13.6713C23.2553 13.6064 22.5443 13.6713 22.0294 14.2218C21.3467 14.9516 21.4798 16.0723 21.6366 16.537C21.7934 17.0017 21.9502 17.5439 21.7934 17.8537C21.6366 18.1635 21.1661 18.3184 20.3035 19.4802C18.6568 21.9586 20.1467 23.1978 21.4797 24.5919C23.4872 26.079 24.2504 27.69 24.3811 28.3096C24.4072 28.4645 24.3246 28.8857 24.8892 29.1335C24.8173 25.7103 26.8576 24.6396 27.1361 21.5755C27.2764 20.0328 28.1575 18.5114 29.5874 17.8537C31.3874 17.0257 33.06 19.1243 36.124 20.7584Z" fill="#AF5681" stroke="#AF5681" stroke-width="0.321232"/>
<path d="M29.3842 48.1309L30.6099 50.5821L30.2013 69.7835L24.4818 58.9572L26.933 56.3017L23.5504 55.4789C21.9865 55.0985 21.6463 53.0263 23.0064 52.1658L29.3842 48.1309Z" fill="#4D6600"/>
<path d="M42.0482 48.1309L40.6183 50.3778L41.4354 69.7835L47.155 58.9572L44.7037 56.3017L48.033 55.4919C49.6046 55.1096 49.9376 53.0223 48.5629 52.17L42.0482 48.1309Z" fill="#4D6600"/>
<g style="mix-blend-mode:multiply">
<path d="M34.572 28.9296C34.572 31.2648 32.6789 33.158 30.3436 33.158C28.0084 33.158 26.1152 31.2648 26.1152 28.9296C26.1152 26.5943 28.0084 24.7012 30.3436 24.7012C32.6789 24.7012 34.572 26.5943 34.572 28.9296Z" fill="#C6CBE6"/>
</g>
<g style="mix-blend-mode:multiply">
<path fill-rule="evenodd" clip-rule="evenodd" d="M30.3436 32.6881C32.4194 32.6881 34.1022 31.0054 34.1022 28.9296C34.1022 26.8538 32.4194 25.171 30.3436 25.171C28.2678 25.171 26.5851 26.8538 26.5851 28.9296C26.5851 31.0054 28.2678 32.6881 30.3436 32.6881ZM30.3436 33.158C32.6789 33.158 34.572 31.2648 34.572 28.9296C34.572 26.5943 32.6789 24.7012 30.3436 24.7012C28.0084 24.7012 26.1152 26.5943 26.1152 28.9296C26.1152 31.2648 28.0084 33.158 30.3436 33.158Z" fill="#323C82"/>
</g>
<g style="mix-blend-mode:multiply">
<path d="M44.908 28.9296C44.908 31.2648 43.0148 33.158 40.6796 33.158C38.3443 33.158 36.4512 31.2648 36.4512 28.9296C36.4512 26.5943 38.3443 24.7012 40.6796 24.7012C43.0148 24.7012 44.908 26.5943 44.908 28.9296Z" fill="#C6CBE6"/>
</g>
<g style="mix-blend-mode:multiply">
<path fill-rule="evenodd" clip-rule="evenodd" d="M40.6796 32.6881C42.7554 32.6881 44.4381 31.0054 44.4381 28.9296C44.4381 26.8538 42.7554 25.171 40.6796 25.171C38.6038 25.171 36.921 26.8538 36.921 28.9296C36.921 31.0054 38.6038 32.6881 40.6796 32.6881ZM40.6796 33.158C43.0148 33.158 44.908 31.2648 44.908 28.9296C44.908 26.5943 43.0148 24.7012 40.6796 24.7012C38.3443 24.7012 36.4512 26.5943 36.4512 28.9296C36.4512 31.2648 38.3443 33.158 40.6796 33.158Z" fill="#323C82"/>
</g>
<path fill-rule="evenodd" clip-rule="evenodd" d="M35.4272 28.9344C35.0675 28.949 34.7511 29.027 34.5808 29.1121C34.4799 29.1626 34.3572 29.1217 34.3068 29.0207C34.2563 28.9198 34.2972 28.7971 34.3981 28.7467C34.6364 28.6276 35.0145 28.5422 35.4106 28.5262C35.8081 28.5101 36.2548 28.5624 36.6235 28.7467C36.7244 28.7972 36.7653 28.9199 36.7149 29.0208C36.6644 29.1217 36.5417 29.1626 36.4408 29.1122C36.1559 28.9697 35.7855 28.9199 35.4272 28.9344Z" fill="#303B75"/>
</g>
</svg>
