<svg width="71" height="71" viewBox="0 0 71 71" fill="none" xmlns="http://www.w3.org/2000/svg">
<circle cx="35.5" cy="35.5" r="35.5" fill="#F4F4F2"/>
<circle cx="35.5" cy="35.5" r="34.5" fill="#F1F1F1"/>
<mask id="mask0_994_23859" style="mask-type:alpha" maskUnits="userSpaceOnUse" x="1" y="1" width="69" height="69">
<circle cx="35.5" cy="35.5" r="34.5" fill="#E0F0B3"/>
</mask>
<g mask="url(#mask0_994_23859)">
<path d="M24.2171 35.2556C18.911 26.6633 22.9211 17.5041 25.5894 13.9986L29.0201 11.3135H33.8231C36.8726 11.8356 43.3833 13.2825 45.03 14.8936C47.5983 16.9141 48.4851 20.7266 48.9425 24.083C49.3999 34.1521 44.2903 39.183 44.5726 38.8357C44.91 37.9726 44.5726 37.7169 44.3439 37.7169C44.0139 38.4206 43.4228 39.0184 43.1178 39.3167C39.4584 42.2256 37.2538 41.7446 36.1102 41.7446C29.935 42.1921 27.1904 38.3882 26.9617 37.4932C26.5958 37.6722 26.3518 38.1644 26.2756 38.3882C25.8181 37.7915 24.766 36.3296 24.2171 35.2556Z" fill="#1A1A1A"/>
<path d="M47.8654 53.1631C37.0989 60.5401 26.8752 56.2369 23.1091 53.1631C20.2846 54.6307 14.353 57.7654 13.2232 58.563C7.4412 62.8828 6.93721 68.3935 7.40797 70.6088H63.8158C65.2281 62.5505 57.5852 57.9814 55.0099 56.5692C51.0223 54.4424 48.5854 53.4123 47.8654 53.1631Z" fill="#5E2902"/>
<path d="M50.2737 25.3324C48.8614 24.5848 47.5045 25.7201 47.1168 26.2463C47.1168 27.3761 46.6184 30.04 46.3691 31.2308C46.5353 31.3415 47.0171 31.5797 47.6153 31.6461C49.7752 31.8861 50.9752 29.9016 51.1875 27.9908C51.3536 26.4955 51.0213 25.8309 50.2737 25.3324Z" fill="#F5FAE6"/>
<path fill-rule="evenodd" clip-rule="evenodd" d="M47.2827 26.3031C47.2749 26.888 47.1511 27.8182 47.0005 28.7425C46.854 29.6417 46.6801 30.5471 46.556 31.149C46.7585 31.2596 47.1567 31.4282 47.6337 31.4812C48.6512 31.5942 49.4391 31.1866 50.005 30.5178C50.5754 29.8438 50.919 28.9035 51.0224 27.9726C51.1042 27.2371 51.0605 26.7269 50.9178 26.3463C50.7781 25.9739 50.5376 25.7095 50.1886 25.4755C49.5426 25.1367 48.9092 25.2228 48.3798 25.4631C47.8735 25.693 47.4757 26.0591 47.2827 26.3031ZM48.2424 25.1605C48.8394 24.8895 49.5878 24.7814 50.3515 25.1858L50.3589 25.1897L50.3659 25.1944C50.7608 25.4576 51.058 25.7737 51.2289 26.2296C51.3977 26.6798 51.4371 27.2495 51.3527 28.0093C51.2438 28.9892 50.8813 29.9966 50.2587 30.7325C49.6315 31.4737 48.7394 31.9384 47.597 31.8114C46.9698 31.7417 46.4629 31.4931 46.2771 31.3692L46.1836 31.3068L46.2066 31.1969C46.3308 30.6035 46.5172 29.6423 46.6725 28.6891C46.8285 27.7319 46.9508 26.796 46.9508 26.2464V26.1918L46.9831 26.1479C47.1924 25.8639 47.6502 25.4294 48.2424 25.1605Z" fill="#333333"/>
<path fill-rule="evenodd" clip-rule="evenodd" d="M47.6405 27.7383C47.6891 27.6605 47.7917 27.6368 47.8695 27.6854C48.2152 27.9015 48.668 28.2945 48.8655 28.7745C48.9662 29.0193 49.0026 29.2923 48.917 29.5733C48.8317 29.8533 48.6315 30.1216 48.2953 30.3693C48.2215 30.4237 48.1175 30.4079 48.063 30.3341C48.0086 30.2602 48.0243 30.1562 48.0982 30.1017C48.3935 29.8842 48.54 29.6706 48.5991 29.4766C48.6579 29.2836 48.6361 29.0903 48.5582 28.901C48.3985 28.5129 48.0122 28.1665 47.6933 27.9672C47.6155 27.9186 47.5919 27.8161 47.6405 27.7383Z" fill="#333333"/>
<path fill-rule="evenodd" clip-rule="evenodd" d="M46.8891 28.6571C47.7262 27.1922 49.2135 26.8824 49.8655 26.912C49.9571 26.9162 50.0281 26.9939 50.0239 27.0856C50.0197 27.1772 49.942 27.2482 49.8504 27.244C49.2839 27.2182 47.9356 27.4955 47.1776 28.8219C47.1321 28.9016 47.0306 28.9293 46.9509 28.8838C46.8713 28.8382 46.8436 28.7367 46.8891 28.6571Z" fill="#333333"/>
<path d="M20.742 25.3324C22.1542 24.5848 23.5111 25.7201 23.8988 26.2463C23.8988 27.3761 24.3973 30.04 24.6465 31.2308C24.4803 31.3415 23.9985 31.5797 23.4004 31.6461C21.2404 31.8861 20.0404 29.9016 19.8281 27.9908C19.662 26.4955 19.9943 25.8309 20.742 25.3324Z" fill="#F5FAE6"/>
<path fill-rule="evenodd" clip-rule="evenodd" d="M23.733 26.3031C23.7407 26.888 23.8645 27.8182 24.0151 28.7425C24.1616 29.6417 24.3355 30.5471 24.4597 31.149C24.2571 31.2596 23.8589 31.4282 23.3819 31.4812C22.3644 31.5942 21.5765 31.1866 21.0106 30.5178C20.4402 29.8438 20.0966 28.9035 19.9932 27.9726C19.9115 27.2371 19.9551 26.7269 20.0978 26.3463C20.2375 25.9739 20.4781 25.7095 20.827 25.4755C21.473 25.1367 22.1064 25.2228 22.6358 25.4631C23.1422 25.693 23.5399 26.0591 23.733 26.3031ZM22.7732 25.1605C22.1762 24.8895 21.4278 24.7814 20.6641 25.1858L20.6567 25.1897L20.6497 25.1944C20.2548 25.4576 19.9577 25.7737 19.7867 26.2296C19.6179 26.6798 19.5785 27.2495 19.6629 28.0093C19.7718 28.9892 20.1343 29.9966 20.757 30.7325C21.3841 31.4737 22.2762 31.9384 23.4186 31.8114C24.0459 31.7417 24.5527 31.4931 24.7386 31.3692L24.832 31.3068L24.809 31.1969C24.6848 30.6035 24.4984 29.6423 24.3431 28.6891C24.1871 27.7319 24.0649 26.796 24.0649 26.2464V26.1918L24.0325 26.1479C23.8233 25.8639 23.3654 25.4294 22.7732 25.1605Z" fill="#4D4D4D"/>
<path fill-rule="evenodd" clip-rule="evenodd" d="M23.3771 27.7363C23.3284 27.6585 23.2259 27.6348 23.1481 27.6835C22.8023 27.8996 22.3496 28.2926 22.1521 28.7726C22.0514 29.0173 22.015 29.2903 22.1006 29.5714C22.1858 29.8514 22.3861 30.1196 22.7222 30.3673C22.7961 30.4217 22.9001 30.406 22.9546 30.3321C23.009 30.2582 22.9932 30.1542 22.9194 30.0998C22.6241 29.8822 22.4776 29.6687 22.4185 29.4746C22.3597 29.2816 22.3815 29.0884 22.4594 28.899C22.6191 28.5109 23.0054 28.1645 23.3242 27.9653C23.402 27.9166 23.4257 27.8141 23.3771 27.7363Z" fill="#4D4D4D"/>
<path fill-rule="evenodd" clip-rule="evenodd" d="M24.1265 28.6561C23.2894 27.1912 21.8021 26.8814 21.1502 26.9111C21.0585 26.9152 20.9876 26.9929 20.9917 27.0846C20.9959 27.1762 21.0736 27.2472 21.1653 27.243C21.7318 27.2173 23.08 27.4945 23.838 28.821C23.8835 28.9006 23.985 28.9283 24.0647 28.8828C24.1444 28.8373 24.172 28.7358 24.1265 28.6561Z" fill="#4D4D4D"/>
<path d="M30.0029 49.3406V39.2054L41.3842 38.79V49.3406L46.477 54.9977L35.8182 62.6325L25.6426 54.9977L30.0029 49.3406Z" fill="#F5FAE6"/>
<path fill-rule="evenodd" clip-rule="evenodd" d="M41.5642 38.6045V49.2721L46.7451 55.027L35.8165 62.8551L25.3906 55.0324L29.8245 49.2798V39.0329L41.5642 38.6045ZM30.183 39.3785V49.4019L25.8962 54.9636L35.8215 62.4107L46.2106 54.969L41.2058 49.4097V38.9763L30.183 39.3785Z" fill="#4D4D4D"/>
<ellipse cx="35.5899" cy="27.3619" rx="8.96104" ry="15.9058" fill="#DCC1AE"/>
<path d="M47.451 25.5821C47.451 34.2995 42.095 41.3663 35.4882 41.3663C28.8813 41.3663 23.5254 34.2995 23.5254 25.5821C23.5254 16.8647 28.8813 9.79785 35.4882 9.79785C42.095 9.79785 47.451 16.8647 47.451 25.5821Z" fill="#F5FAE6"/>
<path fill-rule="evenodd" clip-rule="evenodd" d="M43.6823 36.5425C45.7995 33.749 47.1187 29.875 47.1187 25.5821C47.1187 21.2892 45.7995 17.4152 43.6823 14.6217C41.5653 11.8284 38.6651 10.1302 35.4882 10.1302C32.3113 10.1302 29.4111 11.8284 27.294 14.6217C25.1769 17.4152 23.8577 21.2892 23.8577 25.5821C23.8577 29.875 25.1769 33.749 27.294 36.5425C29.4111 39.3358 32.3113 41.034 35.4882 41.034C38.6651 41.034 41.5653 39.3358 43.6823 36.5425ZM35.4882 41.3663C42.095 41.3663 47.451 34.2995 47.451 25.5821C47.451 16.8647 42.095 9.79785 35.4882 9.79785C28.8813 9.79785 23.5254 16.8647 23.5254 25.5821C23.5254 34.2995 28.8813 41.3663 35.4882 41.3663Z" fill="#4D4D4D"/>
<path fill-rule="evenodd" clip-rule="evenodd" d="M34.8395 22.7962C34.9311 22.8021 35.0006 22.8811 34.9947 22.9727L34.6565 28.2557C34.6566 28.4718 34.6615 28.6521 34.6931 28.7959C34.7243 28.9376 34.7759 29.0186 34.8512 29.0647C34.9315 29.1138 35.0739 29.1452 35.3342 29.1051C35.5924 29.0654 35.9439 28.9588 36.4206 28.7615C36.5054 28.7264 36.6026 28.7667 36.6377 28.8515C36.6728 28.9363 36.6325 29.0334 36.5477 29.0685C36.0608 29.27 35.6811 29.3879 35.3848 29.4335C35.0906 29.4789 34.855 29.4566 34.6778 29.3481C34.4955 29.2365 34.4101 29.0559 34.3686 28.8673C34.3278 28.6818 34.3242 28.4647 34.3242 28.2504V28.2451L34.6631 22.9514C34.669 22.8599 34.7479 22.7904 34.8395 22.7962ZM38.118 31.8576C38.1541 31.942 38.1151 32.0397 38.0307 32.0758C37.2199 32.4233 36.2052 32.5777 35.246 32.5697C34.289 32.5618 33.3642 32.3919 32.737 32.071C32.6553 32.0292 32.623 31.9291 32.6648 31.8474C32.7066 31.7657 32.8067 31.7334 32.8883 31.7752C33.4519 32.0635 34.3193 32.2297 35.2488 32.2374C36.1762 32.2452 37.1425 32.0949 37.8998 31.7704C37.9842 31.7342 38.0818 31.7733 38.118 31.8576ZM36.972 33.4585C37.0042 33.5444 36.9607 33.6402 36.8748 33.6724C36.4277 33.84 35.319 34.1814 34.4904 34.1814C34.3986 34.1814 34.3242 34.107 34.3242 34.0153C34.3242 33.9235 34.3986 33.8491 34.4904 33.8491C35.2568 33.8491 36.3191 33.5259 36.7581 33.3612C36.844 33.329 36.9398 33.3725 36.972 33.4585Z" fill="#666666"/>
<path d="M40.8868 20.7624C38.5607 20.1642 37.4254 21.0116 37.1484 21.51C37.6469 21.6208 39.5908 22.1082 43.3791 23.1715C42.8806 21.6762 41.3022 20.8454 40.8868 20.7624Z" fill="black"/>
<path fill-rule="evenodd" clip-rule="evenodd" d="M38.9935 26.1119C39.0213 26.0754 39.0734 26.0683 39.1099 26.096L41.1868 27.6745C41.2233 27.7022 41.2304 27.7543 41.2027 27.7909C41.1749 27.8274 41.1228 27.8345 41.0862 27.8067L39.0094 26.2283C38.9728 26.2006 38.9657 26.1484 38.9935 26.1119Z" fill="#4A4A4A"/>
<circle cx="40.3884" cy="25.1648" r="0.913824" fill="#1C1B1F"/>
<path d="M29.6718 20.7633C31.9979 20.1652 33.1332 21.0126 33.4102 21.511C32.9117 21.6218 30.9678 22.1092 27.1795 23.1725C27.678 21.6772 29.2564 20.8464 29.6718 20.7633Z" fill="black"/>
<path fill-rule="evenodd" clip-rule="evenodd" d="M31.567 26.1129C31.5393 26.0764 31.4872 26.0693 31.4506 26.097L29.3738 27.6754C29.3372 27.7032 29.3301 27.7553 29.3579 27.7918C29.3857 27.8284 29.4378 27.8355 29.4743 27.8077L31.5512 26.2293C31.5877 26.2015 31.5948 26.1494 31.567 26.1129Z" fill="#4A4A4A"/>
<circle r="0.913824" transform="matrix(-1 0 0 1 30.1702 25.1658)" fill="#1C1B1F"/>
<path d="M28.7793 47.0215C28.7793 45.3646 30.1224 44.0215 31.7793 44.0215H39.6689C41.3258 44.0215 42.6689 45.3646 42.6689 47.0215V49.8462H28.7793V47.0215Z" fill="#B34D03"/>
<path d="M21.6113 53.8786L29.0042 49.6221H41.9977L49.3905 53.8786V70.4565H21.6113V53.8786Z" fill="#964102"/>
<path d="M35.3038 29.957C35.7056 29.3298 36.5884 29.5334 36.9796 29.7136C37.125 29.7728 38.144 30.191 38.7078 30.303C39.2716 30.4151 39.6067 30.3664 40.8251 29.8016C39.4712 32.2607 36.8449 31.5784 36.4813 31.4667C35.0527 31.0279 35.2066 30.2297 35.3038 29.957Z" fill="black"/>
<path d="M35.3993 29.8837C34.9976 29.2565 34.1147 29.4602 33.7236 29.6404C33.5781 29.6995 32.5592 30.1177 31.9954 30.2298C31.4315 30.3418 31.0964 30.2932 29.878 29.7284C31.232 32.1875 33.8583 31.5051 34.2218 31.3935C35.6505 30.9546 35.4966 30.1564 35.3993 29.8837Z" fill="black"/>
<path d="M28.3318 17.5859C31.244 18.706 33.7831 15.719 35.2766 14.6735C35.2766 13.1054 35.0525 12.4333 31.9162 11.7612C28.7798 11.0891 26.0916 14.2255 25.4195 15.5696C24.7474 16.9138 24.7473 18.93 26.5395 19.3781C26.3154 16.6897 28.3317 16.0177 28.7797 16.4657C29.0036 16.9137 28.5557 17.5858 28.3318 17.5859Z" fill="#191919"/>
<path d="M52.8834 18.4093C52.6451 19.8386 49.2107 19.4019 47.5233 19.0048C47.5233 19.0048 39.5326 16.7583 36.3963 16.018C33.2599 15.2777 25.4877 14.2404 25.4877 14.2404C20.1275 13.0492 22.2121 10.6671 23.9988 9.77374C26.7796 8.38341 28.7632 7.98699 33.8255 7.39143C42.1632 6.4981 43.6522 10.8709 47.5233 12.6576C51.3945 14.742 53.1811 16.6226 52.8834 18.4093Z" fill="#4A4A4A"/>
</g>
</svg>
