<svg width="71" height="71" viewBox="0 0 71 71" fill="none" xmlns="http://www.w3.org/2000/svg">
<circle cx="35.5" cy="35.5" r="35.5" fill="#F4F4F2"/>
<circle cx="35.5" cy="35.5" r="34.5" fill="#F1F1F1"/>
<mask id="mask0_994_23747" style="mask-type:alpha" maskUnits="userSpaceOnUse" x="1" y="1" width="69" height="69">
<circle cx="35.5" cy="35.5" r="34.5" fill="#F1F1F1"/>
</mask>
<g mask="url(#mask0_994_23747)">
<path d="M20.1702 15.7528C22.9144 7.76963 31.0847 5.87777 34.8269 5.92974C44.3381 5.92974 47.6126 10.7634 49.1718 13.57C50.1073 15.7529 51.6665 19.0272 56.3442 28.6944C61.1778 41.636 50.4192 45.6899 48.2363 46.6255C48.704 46.1577 49.1718 45.2222 49.9514 43.3511C48.2363 45.3781 45.7415 46.7814 42.4671 48.1847C29.8686 51.6774 22.9769 46.2097 21.1058 43.0393C20.742 43.0912 20.482 43.8189 22.3531 46.3136C8.47603 41.48 13.1537 30.7214 14.2451 28.6944C15.3366 26.6674 16.584 23.2371 20.1702 15.7528Z" fill="#333333"/>
<path d="M50.8235 22.0585C58.4403 33.7078 62.6937 35.7241 62.0249 39.5325C64.5919 35.6144 60.335 29.7551 55.3041 23.4026C51.993 19.2218 52.0582 18.7132 49.4795 14.8896C49.4795 16.0098 49.0313 19.3175 50.8235 22.0585Z" fill="#333333"/>
<path d="M49.8244 25.6293C48.4122 24.8816 47.0553 26.017 46.6676 26.5431C46.6676 27.673 46.1691 30.3369 45.9199 31.5276C46.0861 31.6384 46.5679 31.8766 47.166 31.943C49.326 32.183 50.526 30.1984 50.7383 28.2877C50.9044 26.7924 50.5721 26.1278 49.8244 25.6293Z" fill="#F5FAE6"/>
<path fill-rule="evenodd" clip-rule="evenodd" d="M46.8335 26.6C46.8257 27.1848 46.7019 28.115 46.5513 29.0394C46.4048 29.9385 46.2309 30.844 46.1067 31.4459C46.3093 31.5565 46.7075 31.725 47.1845 31.778C48.202 31.8911 48.9899 31.4835 49.5558 30.8147C50.1262 30.1406 50.4698 29.2004 50.5732 28.2695C50.655 27.534 50.6113 27.0238 50.4686 26.6432C50.3289 26.2708 50.0884 26.0064 49.7394 25.7724C49.0934 25.4336 48.46 25.5197 47.9306 25.76C47.4242 25.9899 47.0265 26.356 46.8335 26.6ZM47.7932 25.4574C48.3902 25.1864 49.1386 25.0783 49.9023 25.4826L49.9097 25.4866L49.9167 25.4912C50.3116 25.7545 50.6087 26.0706 50.7797 26.5265C50.9485 26.9767 50.9879 27.5464 50.9035 28.3062C50.7946 29.2861 50.4321 30.2935 49.8095 31.0294C49.1823 31.7705 48.2902 32.2352 47.1478 32.1083C46.5205 32.0386 46.0137 31.7899 45.8279 31.666L45.7344 31.6037L45.7574 31.4938C45.8816 30.9004 46.068 29.9392 46.2233 28.986C46.3793 28.0287 46.5015 27.0929 46.5015 26.5433V26.4887L46.5339 26.4447C46.7431 26.1608 47.201 25.7263 47.7932 25.4574Z" fill="#333333"/>
<path fill-rule="evenodd" clip-rule="evenodd" d="M47.1893 28.0351C47.238 27.9573 47.3405 27.9337 47.4183 27.9823C47.7641 28.1984 48.2168 28.5914 48.4143 29.0714C48.515 29.3161 48.5514 29.5892 48.4658 29.8702C48.3806 30.1502 48.1803 30.4185 47.8442 30.6661C47.7703 30.7206 47.6663 30.7048 47.6118 30.6309C47.5574 30.5571 47.5732 30.453 47.647 30.3986C47.9423 30.1811 48.0889 29.9675 48.1479 29.7734C48.2067 29.5804 48.1849 29.3872 48.107 29.1979C47.9473 28.8098 47.561 28.4634 47.2422 28.2641C47.1644 28.2155 47.1407 28.113 47.1893 28.0351Z" fill="#333333"/>
<path fill-rule="evenodd" clip-rule="evenodd" d="M46.4399 28.954C47.277 27.4891 48.7643 27.1793 49.4162 27.2089C49.5079 27.2131 49.5788 27.2908 49.5747 27.3824C49.5705 27.4741 49.4928 27.545 49.4011 27.5409C48.8346 27.5151 47.4864 27.7924 46.7284 29.1188C46.6829 29.1985 46.5814 29.2262 46.5017 29.1806C46.422 29.1351 46.3944 29.0336 46.4399 28.954Z" fill="#333333"/>
<path d="M20.2927 25.6293C21.705 24.8816 23.0619 26.017 23.4496 26.5431C23.4496 27.673 23.948 30.3369 24.1973 31.5276C24.0311 31.6384 23.5493 31.8766 22.9511 31.943C20.7912 32.183 19.5912 30.1984 19.3789 28.2877C19.2128 26.7924 19.5451 26.1278 20.2927 25.6293Z" fill="#F5FAE6" stroke="#333333" stroke-width="0.741654"/>
<path fill-rule="evenodd" clip-rule="evenodd" d="M22.9278 28.0332C22.8792 27.9554 22.7767 27.9317 22.6989 27.9804C22.3531 28.1965 21.9004 28.5894 21.7029 29.0695C21.6022 29.3142 21.5658 29.5872 21.6514 29.8683C21.7366 30.1483 21.9369 30.4165 22.273 30.6642C22.3469 30.7186 22.4509 30.7029 22.5053 30.629C22.5598 30.5551 22.544 30.4511 22.4701 30.3967C22.1749 30.1791 22.0283 29.9655 21.9692 29.7715C21.9105 29.5785 21.9322 29.3853 22.0102 29.1959C22.1699 28.8078 22.5562 28.4614 22.875 28.2621C22.9528 28.2135 22.9765 28.111 22.9278 28.0332Z" fill="#333333"/>
<path fill-rule="evenodd" clip-rule="evenodd" d="M23.6773 28.953C22.8402 27.4881 21.3529 27.1783 20.7009 27.2079C20.6093 27.2121 20.5383 27.2898 20.5425 27.3815C20.5467 27.4731 20.6244 27.5441 20.716 27.5399C21.2825 27.5141 22.6308 27.7914 23.3888 29.1178C23.4343 29.1975 23.5358 29.2252 23.6155 29.1797C23.6951 29.1341 23.7228 29.0326 23.6773 28.953Z" fill="#333333"/>
<path d="M29.5555 49.6384V39.5033L40.9368 39.0879V49.6384L48.6628 54.2075L35.3708 62.9304L21.248 54.2075L29.5555 49.6384Z" fill="#F5FAE6"/>
<path fill-rule="evenodd" clip-rule="evenodd" d="M41.1148 38.9014V49.5355L49.0003 54.199L35.3725 63.1422L20.9375 54.3181L29.3751 49.5318V39.3298L41.1148 38.9014ZM29.7336 39.6754V49.7437L21.6024 54.2159L35.3667 62.7173L48.3229 54.2148L40.7564 49.74V39.2731L29.7336 39.6754Z" fill="#4D4D4D"/>
<ellipse cx="35.1407" cy="27.6597" rx="8.96104" ry="15.9058" fill="#DCC1AE"/>
<path d="M46.6309 25.879C46.6309 30.1643 45.314 34.0299 43.2024 36.8161C41.0909 39.6021 38.2012 41.2924 35.039 41.2924C31.8767 41.2924 28.987 39.6021 26.8755 36.8161C24.7639 34.0299 23.447 30.1643 23.447 25.879C23.447 21.5937 24.7639 17.728 26.8755 14.9418C28.987 12.1558 31.8767 10.4656 35.039 10.4656C38.2012 10.4656 41.0909 12.1558 43.2024 14.9418C45.314 17.728 46.6309 21.5937 46.6309 25.879Z" fill="#F5FAE6" stroke="#333333" stroke-width="0.741654"/>
<path d="M47.4162 53.46C36.6497 60.837 26.426 56.5337 22.6599 53.46C19.8354 54.9276 13.9038 58.0623 12.774 58.8598C6.99198 63.1797 6.48799 68.6904 6.95875 70.9057H63.3666C64.7789 62.8474 57.136 58.2783 54.5607 56.866C50.5731 54.7393 48.1362 53.7092 47.4162 53.46Z" fill="#3B489C"/>
<path fill-rule="evenodd" clip-rule="evenodd" d="M34.3942 26.7104C34.4852 26.7221 34.5495 26.8054 34.5377 26.8964L34.2042 29.4814L34.2018 29.4908C34.1378 29.7468 34.1702 30.019 34.3595 30.1544C34.4567 30.2239 34.6171 30.2765 34.8798 30.2598C35.1432 30.243 35.4987 30.1569 35.9709 29.9615C36.0557 29.9265 36.1529 29.9668 36.1879 30.0515C36.223 30.1363 36.1827 30.2335 36.0979 30.2686C35.6064 30.472 35.2136 30.5715 34.9009 30.5914C34.5874 30.6113 34.3438 30.5517 34.1662 30.4247C33.8097 30.1696 33.805 29.718 33.877 29.4199L34.2081 26.8539C34.2199 26.7629 34.3032 26.6986 34.3942 26.7104ZM39.3451 32.2954C39.3797 32.3804 39.3389 32.4773 39.2539 32.512C35.6133 33.9952 32.2839 33.1336 31.0573 32.506C30.9756 32.4642 30.9433 32.3641 30.9851 32.2824C31.0269 32.2007 31.127 32.1684 31.2087 32.2102C32.3635 32.8011 35.5915 33.6452 39.1286 32.2042C39.2135 32.1696 39.3105 32.2104 39.3451 32.2954ZM36.5223 34.2105C36.5545 34.2964 36.511 34.3922 36.425 34.4244C35.9779 34.5921 34.8693 34.9334 34.0406 34.9334C33.9489 34.9334 33.8745 34.859 33.8745 34.7673C33.8745 34.6755 33.9489 34.6011 34.0406 34.6011C34.807 34.6011 35.8694 34.2779 36.3084 34.1132C36.3943 34.081 36.49 34.1246 36.5223 34.2105Z" fill="#7A3502"/>
<path d="M40.4376 21.0602C38.1115 20.4621 36.9761 21.3094 36.6992 21.8079C37.1977 21.9187 39.1416 22.406 42.9298 23.4694C42.4314 21.974 40.853 21.1433 40.4376 21.0602Z" fill="black"/>
<path fill-rule="evenodd" clip-rule="evenodd" d="M38.5443 26.4098C38.572 26.3732 38.6242 26.3661 38.6607 26.3939L40.7376 27.9723C40.7741 28.0001 40.7812 28.0522 40.7534 28.0887C40.7257 28.1253 40.6736 28.1324 40.637 28.1046L38.5602 26.5262C38.5236 26.4984 38.5165 26.4463 38.5443 26.4098Z" fill="#4A4A4A"/>
<circle cx="39.9392" cy="25.4627" r="0.913824" fill="#1C1B1F"/>
<path d="M29.2245 21.0602C31.5506 20.4621 32.686 21.3094 32.9629 21.8079C32.4644 21.9187 30.5205 22.406 26.7323 23.4694C27.2307 21.974 28.8091 21.1433 29.2245 21.0602Z" fill="black"/>
<path fill-rule="evenodd" clip-rule="evenodd" d="M31.1178 26.4098C31.0901 26.3732 31.0379 26.3661 31.0014 26.3939L28.9245 27.9723C28.888 28.0001 28.8809 28.0522 28.9087 28.0887C28.9364 28.1253 28.9886 28.1324 29.0251 28.1046L31.102 26.5262C31.1385 26.4984 31.1456 26.4463 31.1178 26.4098Z" fill="#4A4A4A"/>
<circle r="0.913824" transform="matrix(-1 0 0 1 29.7229 25.4627)" fill="#1C1B1F"/>
<path d="M48.0406 21.1625H22.7151C19.5725 7.8527 31.5883 7.66784 39.9069 8.40727C48.9279 8.99882 49.0881 17.1572 48.0406 21.1625Z" fill="#333333"/>
<mask id="mask1_994_23747" style="mask-type:alpha" maskUnits="userSpaceOnUse" x="6" y="53" width="58" height="18">
<path d="M47.5061 53.4219C36.7396 60.7989 26.5158 56.4956 22.7497 53.4219C19.9252 54.8895 13.9937 58.0242 12.8638 58.8217C7.08182 63.1416 6.57784 68.6523 7.04859 70.8676H63.4564C64.8687 62.8093 57.2258 58.2402 54.6505 56.8279C50.6629 54.7012 48.226 53.6711 47.5061 53.4219Z" fill="#C6CBE6"/>
</mask>
<g mask="url(#mask1_994_23747)">
<rect x="6.01758" y="56.1553" width="57.7987" height="0.649424" fill="#D9D9D9"/>
<rect x="6.01758" y="58.1035" width="57.7987" height="0.649424" fill="#D9D9D9"/>
<rect x="6.01758" y="60.5908" width="57.7987" height="0.649424" fill="#D9D9D9"/>
<rect x="6.01758" y="62.5391" width="57.7987" height="0.649424" fill="#D9D9D9"/>
<rect x="6.01758" y="65.0713" width="57.7987" height="0.649424" fill="#D9D9D9"/>
<rect x="6.01758" y="67.0195" width="57.7987" height="0.649424" fill="#D9D9D9"/>
</g>
</g>
</svg>
