<svg width="64" height="64" viewBox="0 0 64 64" fill="none" xmlns="http://www.w3.org/2000/svg">
<rect width="64" height="64" fill="white"/>
<circle cx="32" cy="32" r="24" fill="#E8C2A7"/>
<path fill-rule="evenodd" clip-rule="evenodd" d="M30.4615 7.80744L30.4683 7.80051L31.3165 6.93769L30.3089 5.93009C28.2734 3.89454 24.9731 3.89454 22.9376 5.93009L22.528 6.33961C20.7187 8.14899 20.7187 11.0826 22.528 12.8919L25.7554 16.1193C25.5559 14.189 26.1928 12.1873 27.6572 10.6984C28.5084 9.83301 29.3832 8.93307 30.4547 7.81447L30.4615 7.80744ZM31.3696 4.86943L32.3682 5.86799L33.7164 4.49656C36.0911 2.08108 39.9743 2.048 42.3898 4.42268L42.8028 4.8287C45.4463 7.42761 45.4825 11.6775 42.8836 14.321L37.1877 20.1148C36.9492 20.3575 36.6967 20.5781 36.4329 20.7766H36.6252H47.2507C50.9781 20.7766 53.9998 23.714 53.9998 27.3374V43.0623C53.9998 43.5485 53.6056 43.9426 53.1195 43.9426C52.6333 43.9426 52.2392 43.5485 52.2392 43.0623V27.3374C52.2392 24.6592 50.0058 22.4881 47.2507 22.4881H36.6252V57.289H47.2507C50.0058 57.289 52.2392 55.1179 52.2392 52.4397V49.897C52.2392 49.4108 52.6333 49.0167 53.1195 49.0167C53.6056 49.0167 53.9998 49.4108 53.9998 49.897V52.4397C53.9998 56.0631 50.9781 59.0005 47.2507 59.0005H36.6252H28.5171H16.7334C13.006 59.0005 9.98438 56.0631 9.98438 52.4397V27.3374C9.98438 23.714 13.006 20.7766 16.7334 20.7766H28.3933C28.1591 20.6003 27.9337 20.4066 27.7189 20.1955C27.5767 20.0557 27.4422 19.9113 27.3152 19.7626C26.548 18.9972 25.7373 18.1973 24.7574 17.2424L24.7504 17.2356L24.7436 17.2288L21.4674 13.9526C19.0722 11.5574 19.0722 7.67411 21.4674 5.27895L21.8769 4.86943C24.4982 2.24809 28.7483 2.24809 31.3696 4.86943ZM16.7334 22.4881H28.5171V57.289H16.7334C13.9784 57.289 11.745 55.1179 11.745 52.4397V27.3374C11.745 24.6592 13.9784 22.4881 16.7334 22.4881ZM31.5379 8.8521L32.3772 7.99838L36.054 11.6752C38.0831 13.7042 38.0831 16.9939 36.054 19.023C34.0158 21.0612 30.716 21.0428 28.6783 19.004L28.421 18.747C26.7212 16.7117 26.8272 13.6814 28.7266 11.7502C29.5825 10.8801 30.4619 9.97537 31.5379 8.8521ZM37.1147 10.6145C38.6126 12.1125 39.2525 14.1436 39.0341 16.0971L41.814 13.2695C43.8321 11.2166 43.804 7.91649 41.7512 5.89835L41.3382 5.49233C39.5135 3.69843 36.58 3.72342 34.7861 5.54814L33.4289 6.92869L37.1147 10.6145ZM34.8877 22.5141H30.2545V57.2631H34.8877V22.5141ZM52.8408 47.4173C53.4805 47.4173 53.9991 46.8987 53.9991 46.259C53.9991 45.6193 53.4805 45.1007 52.8408 45.1007C52.2011 45.1007 51.6825 45.6193 51.6825 46.259C51.6825 46.8987 52.2011 47.4173 52.8408 47.4173Z" fill="#1D1D1D"/>
</svg>
