<svg width="65" height="64" viewBox="0 0 65 64" fill="none" xmlns="http://www.w3.org/2000/svg">
<rect width="64" height="64" transform="translate(0.0664062)" fill="white"/>
<circle cx="32.0664" cy="32" r="24" fill="#BDC2E2"/>
<path d="M51.1745 19.5988H43.7532C41.8285 19.5988 40.2617 18.032 40.2617 16.1073V8.68609C40.2617 8.34644 40.4662 8.03965 40.7803 7.91183C41.0944 7.78035 41.456 7.85339 41.6934 8.09444L51.7661 18.1672C52.0072 18.4082 52.0766 18.7698 51.9487 19.0802C51.8209 19.3943 51.5141 19.5988 51.1745 19.5988ZM41.9417 10.7131V16.1073C41.9417 17.108 42.7562 17.9188 43.7532 17.9188H49.1475L41.9417 10.7131Z" fill="#1C1B1F"/>
<path d="M31.6284 55.686H19.2804C16.9649 55.686 15.084 53.8051 15.084 51.4896V12.046C15.084 9.73049 16.9649 7.84961 19.2804 7.84961H41.1022C41.325 7.84961 41.5368 7.93726 41.6938 8.09431L51.7666 18.167C51.9236 18.3241 52.0113 18.5396 52.0113 18.7587V39.2C52.0113 39.6638 51.6351 40.04 51.1713 40.04C50.7074 40.04 50.3313 39.6638 50.3313 39.2V19.1057L40.7516 9.52596H19.2767C17.8889 9.52596 16.7603 10.6545 16.7603 12.0423V51.4896C16.7603 52.8774 17.8889 54.006 19.2767 54.006H31.6248C32.0886 54.006 32.4648 54.3822 32.4648 54.846C32.4648 55.3098 32.0922 55.686 31.6284 55.686Z" fill="#1C1B1F"/>
<path d="M34.862 37.4145H19.9062C19.457 37.4145 19.0918 37.0493 19.0918 36.6001C19.0918 36.1509 19.457 35.7856 19.9062 35.7856H34.8656C35.3148 35.7856 35.68 36.1509 35.68 36.6001C35.68 37.0493 35.3112 37.4145 34.862 37.4145Z" fill="#1C1B1F"/>
<path d="M38.0204 17.254H19.9055C19.4673 17.254 19.1094 16.8961 19.1094 16.4578C19.1094 16.0195 19.4673 15.6616 19.9055 15.6616H38.0204C38.4587 15.6616 38.8166 16.0195 38.8166 16.4578C38.8166 16.8961 38.4587 17.254 38.0204 17.254Z" fill="#1C1B1F"/>
<path d="M38.0204 22.2901H19.9055C19.4673 22.2901 19.1094 21.9322 19.1094 21.4939C19.1094 21.0557 19.4673 20.6978 19.9055 20.6978H38.0204C38.4587 20.6978 38.8166 21.0557 38.8166 21.4939C38.8166 21.9322 38.4587 22.2901 38.0204 22.2901Z" fill="#1C1B1F"/>
<path d="M48.2472 27.3413H19.9062C19.457 27.3413 19.0918 26.9761 19.0918 26.5268C19.0918 26.0776 19.457 25.7124 19.9062 25.7124H48.2472C48.6964 25.7124 49.0617 26.0776 49.0617 26.5268C49.0617 26.9761 48.6964 27.3413 48.2472 27.3413Z" fill="#1C1B1F"/>
<path d="M48.2472 32.3774H19.9062C19.457 32.3774 19.0918 32.0122 19.0918 31.563C19.0918 31.1138 19.457 30.7485 19.9062 30.7485H48.2472C48.6964 30.7485 49.0617 31.1138 49.0617 31.563C49.0617 32.0122 48.6964 32.3774 48.2472 32.3774Z" fill="#1C1B1F"/>
<path d="M44.9584 56.0001H38.7497C38.348 56.0001 38.0193 55.6714 38.0193 55.2697V49.7914H32.541C32.1392 49.7914 31.8105 49.4627 31.8105 49.061V42.8522C31.8105 42.4505 32.1392 42.1218 32.541 42.1218H38.0193V36.6435C38.0193 36.2418 38.348 35.9131 38.7497 35.9131H44.9584C45.3602 35.9131 45.6889 36.2418 45.6889 36.6435V42.1218H51.1672C51.5689 42.1218 51.8976 42.4505 51.8976 42.8522V49.061C51.8976 49.4627 51.5689 49.7914 51.1672 49.7914H45.6889V55.2697C45.6889 55.6714 45.3602 56.0001 44.9584 56.0001ZM39.4801 54.5393H44.228V49.061C44.228 48.6592 44.5567 48.3305 44.9584 48.3305H50.4367V43.5827H44.9584C44.5567 43.5827 44.228 43.254 44.228 42.8522V37.374H39.4801V42.8522C39.4801 43.254 39.1514 43.5827 38.7497 43.5827H33.2714V48.3305H38.7497C39.1514 48.3305 39.4801 48.6592 39.4801 49.061V54.5393Z" fill="#1C1B1F"/>
<path d="M34.915 55.6347C35.4193 55.6347 35.828 55.2259 35.828 54.7216C35.828 54.2174 35.4193 53.8086 34.915 53.8086C34.4107 53.8086 34.002 54.2174 34.002 54.7216C34.002 55.2259 34.4107 55.6347 34.915 55.6347Z" fill="#1C1B1F"/>
</svg>
