<svg width="65" height="64" viewBox="0 0 65 64" fill="none" xmlns="http://www.w3.org/2000/svg">
<rect width="64" height="64" transform="translate(0.0664062)" fill="white"/>
<circle cx="32.0664" cy="32" r="24" fill="#E8C2A7"/>
<path fill-rule="evenodd" clip-rule="evenodd" d="M14.0891 22.0997C19.0248 21.9189 21.6105 24.8684 22.4189 26.8086C22.5852 27.2079 22.3964 27.6664 21.9972 27.8327C21.598 27.999 21.1395 27.8103 20.9731 27.411C20.374 25.9731 18.3259 23.5101 14.1422 23.6651L14.1323 23.6654L14.1323 23.6654C12.8672 23.6962 10.8835 24.2528 9.20086 25.8612C7.53887 27.4499 6.10982 30.124 6.02717 34.504C6.02908 37.4294 7.10169 42.4075 9.5873 46.61C12.0667 50.8021 15.8579 54.0848 21.2788 53.9862C23.7009 53.9422 28.8267 53.0647 34.4061 46.6783C34.4177 46.6624 34.4294 46.6462 34.4413 46.6299C35.3078 45.4391 36.9459 43.1879 37.892 40.5662C38.8556 37.8959 39.0536 34.9873 37.1377 32.4327C36.7823 31.9588 35.4221 30.8189 33.4834 31.2073C32.6405 31.3762 31.6752 31.9112 30.786 33.2456C31.3765 34.484 31.5868 35.5469 31.5309 36.421C31.4458 37.7515 30.6563 38.8699 29.5285 38.8699H29.451L29.3749 38.8547C28.7866 38.737 28.4277 38.3183 28.2427 37.8796C28.0662 37.461 28.018 36.9718 28.0331 36.5041C28.0636 35.5602 28.3612 34.4469 28.8281 33.5131C28.8817 33.4058 28.9361 33.3011 28.9912 33.1988C28.741 32.7669 28.4333 32.3004 28.0574 31.7992C27.6375 31.2394 26.8964 30.5051 25.9164 30.0996C24.9692 29.7077 23.7549 29.6013 22.2767 30.3404L22.2608 30.3483L22.2445 30.3556C21.5385 30.6694 20.119 31.8738 19.6882 34.2911C19.2595 36.6967 19.7984 40.4019 23.2174 45.6858C23.4524 46.0489 23.3485 46.5337 22.9853 46.7687C22.6222 47.0037 22.1374 46.8998 21.9024 46.5367C18.3528 41.0508 17.6247 36.9428 18.1463 34.0163C18.6633 31.1153 20.3974 29.4708 21.5915 28.9319C23.4858 27.9898 25.1696 28.0955 26.5152 28.6524C27.8317 29.1971 28.7799 30.1522 29.3103 30.8594C29.5399 31.1655 29.7492 31.464 29.9395 31.7548C30.919 30.5418 32.036 29.8999 33.1758 29.6716C35.8829 29.1292 37.7958 30.6998 38.3907 31.4929C40.7509 34.64 40.421 38.172 39.3653 41.0978C38.3422 43.9329 36.5929 46.3357 35.7251 47.5276C35.7001 47.562 35.6758 47.5953 35.6523 47.6277L35.632 47.6556L35.6093 47.6817C29.7097 54.4488 24.1431 55.5006 21.3072 55.5522C15.1137 55.6648 10.8806 51.8733 8.23921 47.4074C5.60605 42.9554 4.4611 37.6964 4.46094 34.4969L4.46094 34.4896L4.46107 34.4824C4.54882 29.7442 6.11068 26.6484 8.11861 24.729C10.1048 22.8305 12.4683 22.1406 14.0891 22.0997ZM29.8427 35.1893C29.6973 35.6679 29.6117 36.1461 29.5985 36.5546C29.589 36.8513 29.6192 37.0665 29.6617 37.2039C29.7798 37.0892 29.9344 36.844 29.9678 36.321C29.9872 36.0186 29.9567 35.6413 29.8427 35.1893ZM29.7239 37.3403C29.7239 37.3406 29.7223 37.3393 29.7193 37.3353C29.7225 37.338 29.724 37.34 29.7239 37.3403Z" fill="#1C1B1F"/>
<path fill-rule="evenodd" clip-rule="evenodd" d="M40.7199 30.3529C42.8104 26.1717 46.7828 24.2841 49.9635 24.6626C53.9106 25.1321 56.1757 27.5438 57.2527 30.4651C58.3117 33.3375 58.2388 36.7157 57.6021 39.345C55.7738 47.4061 52.4467 51.8796 49.2022 54.3451C45.9659 56.8042 42.8937 57.2034 41.6745 57.2643C38.1167 57.4422 34.7757 56.3678 32.0667 54.9834C29.3586 53.5994 27.2302 51.8795 26.0798 50.692C25.7789 50.3813 25.7867 49.8856 26.0974 49.5846C26.408 49.2837 26.9038 49.2916 27.2047 49.6022C28.2364 50.6672 30.2258 52.2837 32.7794 53.5887C35.332 54.8932 38.3965 55.8601 41.5962 55.7001C42.6092 55.6494 45.3442 55.3095 48.2546 53.098C51.1559 50.8934 54.314 46.7663 56.0759 38.9931L56.0785 38.9816C56.6624 36.5746 56.7103 33.5217 55.7832 31.0069C54.8733 28.539 53.0431 26.6062 49.7785 26.2178C47.3182 25.9251 43.9459 27.4028 42.1208 31.0533C41.9274 31.4402 41.457 31.597 41.0702 31.4036C40.6833 31.2102 40.5265 30.7398 40.7199 30.3529Z" fill="#1C1B1F"/>
<circle cx="24.6332" cy="48.1557" r="0.978896" fill="#1C1B1F"/>
<path d="M30.9945 27.4032C33.491 27.4032 35.2037 24.8859 35.2037 22.2151C35.2037 19.5443 33.491 17.0269 30.9945 17.0269C28.498 17.0269 26.7852 19.5443 26.7852 22.2151C26.7852 24.8859 28.498 27.4032 30.9945 27.4032Z" stroke="black" stroke-width="1.56623"/>
<path d="M17.2918 20.551C20.2967 20.551 22.4799 17.6356 22.4799 14.3839C22.4799 11.1322 20.2967 8.21688 17.2918 8.21688C14.2868 8.21688 12.1036 11.1322 12.1036 14.3839C12.1036 17.6356 14.2868 20.551 17.2918 20.551Z" stroke="black" stroke-width="1.56623"/>
<path d="M47.6375 22.509C50.6424 22.509 52.8256 19.5936 52.8256 16.3419C52.8256 13.0902 50.6424 10.1749 47.6375 10.1749C44.6325 10.1749 42.4493 13.0902 42.4493 16.3419C42.4493 19.5936 44.6325 22.509 47.6375 22.509Z" stroke="black" stroke-width="1.56623"/>
</svg>
