<svg width="65" height="64" viewBox="0 0 65 64" fill="none" xmlns="http://www.w3.org/2000/svg">
<rect width="64" height="64" transform="translate(0.0664062)" fill="white"/>
<circle cx="32.0664" cy="32" r="24" fill="#E3C4D3"/>
<path d="M32.3866 32.5694C37.2974 32.5694 42.0441 26.2924 42.7497 18.8667C43.1436 14.6985 43.1764 10.477 40.7559 7.81437C39.0328 5.91898 36.2964 5 32.3866 5C28.4768 5 25.7404 5.91898 24.0173 7.81437C21.5927 10.477 21.6255 14.7026 22.0235 18.8667C22.7291 26.2924 27.4717 32.5694 32.3866 32.5694ZM32.3866 30.8709C28.3825 30.8709 24.3332 25.1847 23.7137 18.7067C23.6891 18.4401 23.6645 18.1734 23.644 17.9067C23.7014 17.9067 23.763 17.9108 23.8204 17.9108C29.7158 17.9108 32.801 16.1878 34.401 14.5631C35.4348 15.2072 38.0277 16.7006 41.1497 17.5908C41.121 17.9642 41.0923 18.3375 41.0554 18.7067C40.44 25.1847 36.3866 30.8709 32.3866 30.8709ZM25.2727 8.95489C26.6553 7.43694 28.9814 6.69437 32.3825 6.69437C35.7835 6.69437 38.1097 7.43283 39.4923 8.95079C40.9651 10.5713 41.3097 13.0944 41.24 15.839C38.6512 15.0472 36.4523 13.8165 35.4512 13.2052C35.9271 12.4134 36.0584 11.8185 36.0707 11.7405C36.161 11.2852 35.8656 10.8421 35.4102 10.7477C34.9548 10.6534 34.5076 10.9487 34.4051 11.4C34.3599 11.6052 33.1989 16.2944 23.5332 16.196C23.4306 13.32 23.7342 10.6493 25.2727 8.95489Z" fill="#1C1B1F"/>
<path d="M53.5925 39.6015L53.5884 39.5358C52.9484 34.5758 46.6386 33.3204 46.3678 33.2671L41.576 32.3522C41.5062 32.3276 41.4324 32.3153 41.3545 32.3112L40.8744 32.2209L40.6365 32.6394C40.5873 32.705 40.5421 32.7789 40.5134 32.8568L32.3739 47.3225L23.8733 32.2168L23.4097 32.3071C23.3113 32.3071 23.221 32.3276 23.1349 32.3604L18.3841 33.2671C18.1174 33.3163 11.8035 34.5758 11.1635 39.5358L10.261 56.8897C10.2363 57.3574 10.5974 57.7595 11.0651 57.7841C11.0815 57.7841 11.0938 57.7841 11.1102 57.7841C11.5615 57.7841 11.9348 57.4313 11.9594 56.9759L12.8538 39.7204C13.3584 36.0117 18.6466 34.945 18.7 34.9368L22.5728 34.1983V42.2066C19.5574 43.5235 18.2938 46.6497 18.2938 48.1389C18.2938 49.2671 18.5851 51.4169 19.4138 53.7718L19.6149 54.342H21.2887C21.7564 54.342 22.1379 53.9605 22.1379 53.4928C22.1379 53.0251 21.7564 52.6436 21.2887 52.6436H20.8292C20.2549 50.8302 19.9964 49.1153 19.9964 48.143C19.9964 47.4374 20.8292 44.7297 23.4262 43.704C26.0231 44.7297 26.8559 47.4374 26.8559 48.143C26.8559 49.1153 26.5975 50.8302 26.0231 52.6436H25.5636C25.0959 52.6436 24.7144 53.0251 24.7144 53.4928C24.7144 53.9605 25.0959 54.342 25.5636 54.342H27.2375L27.4385 53.7718C28.2631 51.4169 28.5585 49.2671 28.5585 48.1389C28.5585 46.6497 27.2949 43.5235 24.2795 42.2066V36.3973L31.5616 49.341C31.7298 49.6405 32.0539 49.7964 32.378 49.7677C32.7021 49.7964 33.0262 49.6405 33.1944 49.341L40.4642 36.426V43.101C38.6303 43.4948 37.2519 45.1235 37.2519 47.0723C37.2519 49.3123 39.0734 51.1338 41.3134 51.1338C43.5534 51.1338 45.375 49.3123 45.375 47.0723C45.375 45.1235 43.9965 43.4948 42.1627 43.101V34.1983L46.0478 34.9409C46.1011 34.9532 51.3894 36.0158 51.8981 39.7245L52.5914 53.1113C52.6161 53.5667 52.9894 53.9195 53.4407 53.9195C53.4571 53.9195 53.4694 53.9195 53.4858 53.9195C53.9535 53.8949 54.3145 53.4969 54.2899 53.0251L53.5925 39.6015ZM43.6724 47.0723C43.6724 48.3728 42.6139 49.4312 41.3134 49.4312C40.0129 49.4312 38.9544 48.3728 38.9544 47.0723C38.9544 45.7717 40.0129 44.7133 41.3134 44.7133C42.6139 44.7092 43.6724 45.7676 43.6724 47.0723Z" fill="#1C1B1F"/>
<path d="M52.7306 56.2746C52.3655 56.7792 52.4763 57.4808 52.9809 57.8459C53.4814 58.211 54.187 58.1003 54.5522 57.5957C54.9173 57.091 54.8065 56.3895 54.3019 56.0244C53.7973 55.6592 53.0957 55.7741 52.7306 56.2746Z" fill="#1C1B1F"/>
</svg>
