<svg width="66" height="62" viewBox="0 0 66 62" fill="none" xmlns="http://www.w3.org/2000/svg">
<path d="M51.8319 49.7292C51.8319 48.8459 51.1433 48.124 50.2735 48.0678V48.0657C50.2735 48.0657 50.2641 48.0657 50.2496 48.0657C50.2214 48.0646 50.1933 48.0615 50.1652 48.0615C50.1277 48.0615 50.0902 48.0646 50.0537 48.0667C48.4246 48.0657 37.9829 47.8011 27.4277 41.4219C27.4277 41.4219 18.3277 35.9532 13.8506 28.3928C13.8506 28.3928 9.06206 20.8323 13.7496 15.8323C13.7496 15.8323 17.3339 12.7709 22.2079 15.2907C22.2079 15.2907 27.736 17.9386 30.2735 26.3126C30.2735 26.3126 31.0766 28.3761 28.7152 28.6146C28.7152 28.6146 27.3235 29.1251 27.4641 30.2907C27.6048 31.4563 28.7152 31.9438 28.7152 31.9438C28.7152 31.9438 34.3506 31.7855 33.5819 25.9969C33.5819 25.9969 33.1235 22.7303 30.2069 18.6563C30.2069 18.6563 25.5996 10.7209 17.9558 10.8813C17.9558 10.8813 9.37457 10.9365 8.43082 20.2438C8.43082 20.2438 7.48186 25.9292 12.6475 32.6001C12.6475 32.6001 18.3996 40.6303 29.1996 46.2011C29.1996 46.2011 40.2371 51.6459 50.2746 51.3959V51.3907C51.1433 51.3344 51.8319 50.6126 51.8319 49.7292Z" fill="url(#paint0_linear_2006_23420)"/>
<path d="M56.3687 52.4146C57.8305 52.4146 59.0156 51.2296 59.0156 49.7677C59.0156 48.3059 57.8305 47.1208 56.3687 47.1208C54.9069 47.1208 53.7218 48.3059 53.7218 49.7677C53.7218 51.2296 54.9069 52.4146 56.3687 52.4146Z" fill="#009999"/>
<path d="M50.3427 9.61045C50.3427 9.61045 46.8938 6.64066 41.2073 9.15316C41.2073 9.15316 35.3104 11.273 30.2073 18.6573C30.2073 18.6573 26.2156 24.8834 27.3271 27.8063C27.3271 27.8063 27.6406 28.5855 28.7156 28.6157V31.9448C28.7156 31.9448 24.3729 31.8521 23.8531 27.6448C23.8531 27.6448 22.9563 23.2073 28.1448 15.7698C28.1448 15.7698 33.1438 8.59691 39.9573 6.06879C39.9573 6.06879 47.2281 2.61774 52.7813 7.29795L50.3427 9.61045Z" fill="url(#paint1_linear_2006_23420)"/>
<path d="M10.641 53.6324C12.1028 53.6324 13.2879 52.4473 13.2879 50.9855C13.2879 49.5237 12.1028 48.3386 10.641 48.3386C9.17919 48.3386 7.99414 49.5237 7.99414 50.9855C7.99414 52.4473 9.17919 53.6324 10.641 53.6324Z" fill="#99CC00"/>
<path d="M52.7813 7.29895L50.3438 9.61145C50.3438 9.61145 54.8969 12.3969 51.9761 19.2531C51.9761 19.2531 48.7532 27.4583 40.1584 33.4687C40.1584 33.4687 31.9803 40 16.0428 46.875L16.0292 46.8823C15.4157 47.1281 15.0011 47.7365 15.0011 48.4375C15.0011 49.3583 15.7469 50.1042 16.6678 50.1042C17.0615 50.1042 17.2928 50 17.2928 50C17.2928 50 34.0636 42.6042 41.8396 36.3729C41.8396 36.3729 52.0823 29.0781 55.2605 20.0083C55.2594 20.0083 58.7907 12.3062 52.7813 7.29895Z" fill="url(#paint2_linear_2006_23420)"/>
<defs>
<linearGradient id="paint0_linear_2006_23420" x1="30.041" y1="33.0415" x2="30.2052" y2="40.5962" gradientUnits="userSpaceOnUse">
<stop stop-color="#2BA797"/>
<stop offset="0.1624" stop-color="#22A497"/>
<stop offset="0.6828" stop-color="#099C99"/>
<stop offset="1" stop-color="#009999"/>
</linearGradient>
<linearGradient id="paint1_linear_2006_23420" x1="23.7941" y1="18.3945" x2="52.781" y2="18.3945" gradientUnits="userSpaceOnUse">
<stop stop-color="#049A99"/>
<stop offset="0.2448" stop-color="#40AE96"/>
<stop offset="0.5004" stop-color="#77C193"/>
<stop offset="0.7208" stop-color="#A0CF91"/>
<stop offset="0.8945" stop-color="#B9D78F"/>
<stop offset="1" stop-color="#C2DA8F"/>
</linearGradient>
<linearGradient id="paint2_linear_2006_23420" x1="15.0001" y1="28.7014" x2="56.2903" y2="28.7014" gradientUnits="userSpaceOnUse">
<stop stop-color="#9ACC02"/>
<stop offset="1" stop-color="#C7DCA0"/>
</linearGradient>
</defs>
</svg>
