<?xml version="1.0" encoding="utf-8"?>
<!-- Generator: Adobe Illustrator 26.5.0, SVG Export Plug-In . SVG Version: 6.00 Build 0)  -->
<svg version="1.1" id="Capa_1" xmlns="http://www.w3.org/2000/svg" xmlns:xlink="http://www.w3.org/1999/xlink" x="0px" y="0px"
	 viewBox="0 0 1920 597" style="enable-background:new 0 0 1920 597;" xml:space="preserve">
<style type="text/css">
	.st0{fill:#FFFFFF;}
</style>
<path class="st0" d="M518,485.2c0-8.5-6.6-15.4-15-16v0c0,0-0.1,0-0.2,0c-0.3,0-0.5,0-0.8,0c-0.4,0-0.7,0-1.1,0
	c-15.6,0-115.9-2.5-217.2-63.8c0,0-87.4-52.5-130.3-125.1c0,0-46-72.6-1-120.6c0,0,34.4-29.4,81.2-5.2c0,0,53.1,25.4,77.4,105.8
	c0,0,7.7,19.8-15,22.1c0,0-13.4,4.9-12,16.1s12,15.9,12,15.9s54.1-1.5,46.7-57.1c0,0-4.4-31.4-32.4-70.5c0,0-44.2-76.2-117.6-74.6
	c0,0-82.4,0.5-91.4,89.9c0,0-9.1,54.6,40.5,118.6c0,0,55.2,77.1,158.9,130.6c0,0,106,52.3,202.3,49.9v0
	C511.3,500.6,518,493.7,518,485.2z"/>
<g>
	<g>
		<path class="st0" d="M1422.8,407.9h85.9c5.8,0,10.5-4.7,10.5-10.5c0-5.8-4.7-10.5-10.5-10.5h-74.2c-0.7,0-1.2-0.5-1.2-1.2V262.4
			c0-6.6-5.4-12-12-12s-12,5.4-12,12v131.9C1409.2,401.8,1415.3,407.9,1422.8,407.9"/>
		<path class="st0" d="M1600.1,410.4c46.1,0,69.9-31.3,69.9-67.6v-80.4c0-6.7-5.4-12-12-12s-12,5.4-12,12v78.5
			c0,27.1-14.6,47-45.8,47c-30.8,0-45.2-18.5-45.2-46.8v-78.7c0-6.6-5.4-12-12-12s-12,5.4-12,12v80.4
			C1530.8,382.2,1554.4,410.4,1600.1,410.4"/>
		<path class="st0" d="M1709.7,408.8h50.3c46.6,0,81.3-28,81.3-79c0-51.5-34.7-79.2-81.3-79.5h-50.3c-7.5,0-13.6,6.1-13.6,13.7
			v131.1C1696.2,402.7,1702.2,408.8,1709.7,408.8 M1721.4,271.6h37.7c33.6,0.2,57.4,20.5,57.4,58.2c0,37.3-23.8,57.8-57.4,57.8
			h-37.7c-0.7,0-1.2-0.5-1.2-1.2V272.8C1720.3,272.1,1720.8,271.6,1721.4,271.6"/>
		<path class="st0" d="M904.5,250.4h-96.5c-7.5,0-13.6,6.1-13.6,13.6v130.3c0,7.5,6.1,13.6,13.6,13.6h96.5c9,0,16.3-7.3,16.3-16.3
			v-1.2c0-9-7.3-16.3-16.3-16.3h-71.9c-0.6,0-1.1-0.5-1.1-1.1v-27.8c0-0.6,0.5-1.1,1.1-1.1h55c9,0,16.3-7.3,16.3-16.3
			c0-9-7.3-16.3-16.3-16.3h-55c-0.6,0-1.1-0.5-1.1-1.1v-24.8c0-0.6,0.5-1.1,1.1-1.1h71.9c9,0,16.3-7.3,16.3-16.3v-1.2
			C920.8,257.7,913.5,250.4,904.5,250.4"/>
		<path class="st0" d="M1010.2,250.4h-57.1c-7.5,0-13.6,6.1-13.6,13.6v130.3c0,7.5,6.1,13.6,13.6,13.6h57.1
			c46.5,0,81.3-27.8,81.3-78.5C1091.5,278.2,1056.7,250.6,1010.2,250.4 M1008.6,374h-29c-0.6,0-1.1-0.5-1.1-1.1v-87.6
			c0-0.6,0.5-1.1,1.1-1.1h29c25.5,0,42.8,16,42.8,45.1C1051.4,358.1,1034,374,1008.6,374"/>
		<path class="st0" d="M1388.5,397.6c0-1.7-0.4-3.2-1-4.7h0l-54.1-130.5c-3-7.3-10.7-12-18.6-12h-0.2h-0.2c-7.8,0-15.5,4.7-18.6,12
			l-54.1,130.5c-0.7,1.4-1,3-1,4.7c0,6.2,5.1,11.3,11.3,11.3c4.9,0,9.2-3.1,10.7-7.5c0.2-0.4,0.3-0.7,0.5-1.1l10.9-26.3
			c0.2-0.5,0.7-0.8,1.2-0.8h39.3h39.3c0.5,0,1,0.3,1.2,0.8l10.9,26.3c0.2,0.4,0.3,0.7,0.4,1.1c1.6,4.4,5.8,7.5,10.8,7.5
			C1383.4,408.9,1388.5,403.8,1388.5,397.6 M1347.3,354.8h-32.7h-32.7c-0.6,0-0.9-0.6-0.7-1.1l32.2-76.1c0.2-0.5,0.7-0.8,1.2-0.9
			c0.5,0,1,0.3,1.2,0.9l32.2,76.1C1348.2,354.3,1347.9,354.8,1347.3,354.8"/>
		<path class="st0" d="M765.7,376.4h-0.2h-0.7c-14.3,0-27.9-13.3-41.7-26c-0.4-0.4-0.2-1,0.3-1.1c23.2-5.2,40-22.9,40-47.2
			c0-36.8-29.9-51.9-60.4-51.9h-61.2c-7.5,0-13.6,6.1-13.6,13.6v126.9c0,10.7,8.7,19.4,19.5,19.4s19.5-8.7,19.5-19.5l0-0.1v-38.5
			c0-0.7,0.5-1.2,1.2-1.2h4.3h0h0.5c0.8,0,3,0.3,5.6,2.5c20.1,16.2,45.6,56.6,79.8,56.6c3.7,0,7.2-0.4,10.5-1l0.2,0
			c7.4-1.6,13-8.2,13-16.1C782.2,383.8,774.8,376.4,765.7,376.4 M702.3,323.1h-34.1c-0.6,0-1.1-0.5-1.1-1.1v-36.6
			c0-0.6,0.5-1.1,1.1-1.1h34.1c12.7,0,20.8,7.4,20.8,19.5C723.1,315.2,715,323.1,702.3,323.1"/>
		<path class="st0" d="M1187.6,319.2l-31.3-8.3c-13.7-3.5-21.3-7.9-21.3-18.6c0-11.8,11.3-24.5,36.4-21.8c11.4,1.2,23.7,4.4,33.9,9
			c0.5,0.2,1.5,0.6,2.7,1c1.3,0.4,2.5,0.7,3.9,0.7c5.9,0,10.7-4.8,10.7-10.7c0-2.3-0.7-4.4-1.9-6.1c-1.2-1.8-3-3.4-5.7-4.6
			c-11.4-4.8-27.5-10.6-42.8-11.6c-42.5-2.6-62.1,21.3-62.1,45.9c0,20.6,12.7,34.3,35.7,40.1l31.7,8.1c17.6,4.4,27.6,10.4,27.6,21.5
			c0,14.6-14.6,24.1-37.5,24.1c-12.8,0-25.1-3.2-35.2-7.3l-0.6-0.2c-1.1-0.4-2-0.7-3-0.9c0,0-1.4-0.2-2.2-0.2
			c-3.1,0-5.9,1.2-7.9,3.3c-2,2-3.3,4.8-3.3,7.9c0,3,1.2,5.8,3.2,7.8l0,0c1.2,1.4,2.8,2.4,4.7,3.2c11.3,4.5,27.3,8.6,43.8,8.6
			c37.3,0,63-20.7,63-49.9C1230.2,338,1215.4,326.9,1187.6,319.2"/>
	</g>
	<g>
		<path class="st0" d="M1321.4,498.6c2.8,1.9,6.3,3.4,10.6,3.4c3.9,0,7.8-1.5,7.8-5.5c0-9.1-20.2-8-20.2-22.3
			c0-6.9,5.5-12.9,15.2-12.9c4.8,0,8.9,1.1,11.4,2.4v7.8c-3.7-1.9-7.5-3-11.2-3c-3.3,0-6.4,1.3-6.4,5c0,8.6,20.2,7.5,20.2,22.3
			c0,8.3-7.1,13.4-16.7,13.4c-5.5,0-10.6-1.6-14.1-4L1321.4,498.6z"/>
		<path class="st0" d="M1366.8,485.3c0-14.2,9.7-24,23.6-24s23.6,9.9,23.6,24c0,14.3-9.9,23.9-23.6,23.9
			C1376.6,509.2,1366.8,499.6,1366.8,485.3z M1404.9,485.3c0-10.4-5.6-16.8-14.5-16.8c-8.7,0-14.5,6.2-14.5,16.8
			c0,10.6,5.8,16.8,14.5,16.8C1399,502,1404.9,495.9,1404.9,485.3z"/>
		<path class="st0" d="M1434,461.7h7.7l12.3,17.7c1.6,2.4,2.8,4.2,3.9,6h0.1c1-1.8,2.2-3.8,3.8-6.3l11.2-17.4h7.8v46.8h-8.6v-26.4
			c0-1.9,0-4.3,0.1-6.2h-0.1c-0.6,1.4-2.3,4-3.2,5.3l-9.2,14.3h-3.9l-10.2-14.7c-1-1.4-2.3-3-3.2-4.8h-0.1c0.1,1.9,0.1,4.3,0.1,5.9
			v26.6h-8.5L1434,461.7L1434,461.7z"/>
		<path class="st0" d="M1500.9,485.3c0-14.2,9.7-24,23.6-24s23.6,9.9,23.6,24c0,14.3-9.9,23.9-23.6,23.9
			C1510.7,509.2,1500.9,499.6,1500.9,485.3z M1539,485.3c0-10.4-5.6-16.8-14.5-16.8c-8.7,0-14.5,6.2-14.5,16.8
			c0,10.6,5.8,16.8,14.5,16.8C1533.1,502,1539,495.9,1539,485.3z"/>
		<path class="st0" d="M1569.2,498.6c2.8,1.9,6.3,3.4,10.6,3.4c3.9,0,7.8-1.5,7.8-5.5c0-9.1-20.2-8-20.2-22.3
			c0-6.9,5.5-12.9,15.2-12.9c4.8,0,8.9,1.1,11.4,2.4v7.8c-3.7-1.9-7.5-3-11.2-3c-3.3,0-6.4,1.3-6.4,5c0,8.6,20.2,7.5,20.2,22.3
			c0,8.3-7.1,13.4-16.7,13.4c-5.5,0-10.6-1.6-14.1-4L1569.2,498.6z"/>
		<path class="st0" d="M1679.1,505.5c-5.2,2.8-10.2,3.7-14.8,3.7c-15.3,0-23.7-9.9-23.7-23.6c0-13.6,9.7-24.4,24.7-24.4
			c5.1,0,9.4,1,12.3,2.3v8c-3.6-1.9-7.5-3-12.1-3c-10.4,0-15.8,7.8-15.8,17c0,9.8,6,16.6,15.6,16.6c4.6,0,8.2-1.4,11.5-3.3
			L1679.1,505.5z"/>
		<path class="st0" d="M1734.2,505.5c-5.2,2.8-10.2,3.7-14.8,3.7c-15.3,0-23.7-9.9-23.7-23.6c0-13.6,9.7-24.4,24.7-24.4
			c5.1,0,9.4,1,12.3,2.3v8c-3.6-1.9-7.5-3-12.1-3c-10.4,0-15.8,7.8-15.8,17c0,9.8,6,16.6,15.6,16.6c4.6,0,8.2-1.4,11.5-3.3
			L1734.2,505.5z"/>
		<path class="st0" d="M1751.5,458.2h8.4v20.4c3.1-2.6,6.9-4.5,11.2-4.5c5.3,0,10.7,2.6,10.7,12.2v22.2h-8.4v-19.6
			c0-4.1-0.8-7.5-5.2-7.5c-2.8,0-5.8,1.5-8.2,3.5v23.5h-8.4L1751.5,458.2L1751.5,458.2z"/>
		<path class="st0" d="M1838.6,505.5c-5.2,2.8-10.2,3.7-14.8,3.7c-15.3,0-23.7-9.9-23.7-23.6c0-13.6,9.7-24.4,24.7-24.4
			c5.1,0,9.4,1,12.3,2.3v8c-3.6-1.9-7.5-3-12.1-3c-10.4,0-15.8,7.8-15.8,17c0,9.8,6,16.6,15.6,16.6c4.6,0,8.2-1.4,11.5-3.3
			L1838.6,505.5z"/>
	</g>
</g>
<g>
	<circle class="st0" cx="561.5" cy="485.6" r="25.4"/>
</g>
<path class="st0" d="M503.7,100.1c0,0-33.1-28.5-87.7-4.4c0,0-56.6,20.3-105.6,91.2c0,0-38.3,59.8-27.6,87.8c0,0,3,7.5,13.3,7.8v32
	c0,0-41.7-0.9-46.7-41.3c0,0-8.6-42.6,41.2-114c0,0,48-68.9,113.4-93.1c0,0,69.8-33.1,123.1,11.8L503.7,100.1z"/>
<circle class="st0" cx="122.5" cy="497.3" r="25.4"/>
<path class="st0" d="M527.1,77.9l-23.4,22.2c0,0,43.7,26.7,15.7,92.6c0,0-30.9,78.8-113.5,136.5c0,0-78.5,62.7-231.5,128.7l-0.1,0.1
	c-5.9,2.4-9.9,8.2-9.9,14.9c0,8.8,7.2,16,16,16c3.8,0,6-1,6-1s161-71,235.7-130.8c0,0,98.3-70,128.8-157.1
	C550.9,199.9,584.8,126,527.1,77.9z"/>
</svg>
